<svg xmlns="http://www.w3.org/2000/svg" xmlns:xlink="http://www.w3.org/1999/xlink" viewBox="0 0 362.45 480.59">
  <defs>
    <style>
      .cls-1 {
        fill: #fff;
        filter: url(#luminosity-noclip);
      }

      .cls-2 {
        mask: url(#mask);
      }

      .cls-3 {
        fill: #4264af;
      }
    </style>
    <filter id="luminosity-noclip" x="-445.34" y="0" width="807.79" height="480.59" filterUnits="userSpaceOnUse" color-interpolation-filters="sRGB">
      <feFlood flood-color="#fff" result="bg"/>
      <feBlend in="SourceGraphic" in2="bg"/>
    </filter>
    <mask id="mask" x="-445.34" y="0" width="807.79" height="480.59" maskUnits="userSpaceOnUse">
      <rect class="cls-1" x="-445.34" y="68.41" width="599.07" height="295.98" rx="45.86"/>
    </mask>
  </defs>
  <g id="Layer_2" data-name="Layer 2">
    <g id="Layer_1-2" data-name="Layer 1">
      <g class="cls-2">
        <path class="cls-3" d="M262.65,1.85c-12-1.75-36.52-5.21-63.5,6.7a107.5,107.5,0,0,0-30.53,20.71c-18.75,17.33-25.06,33.43-34.92,51,0,0-25.27,45.13-67.15,80.58C34.49,188,22.09,184.59,10.05,206.09c-18.06,32.26-6.52,69.22-5.28,73C15.87,312.89,38.65,316,75.47,357c41.33,46,28.89,60.22,58.23,85.94,38.37,33.64,110.07,53.55,164.42,21.39,53.15-31.45,76.8-104.9,57.87-131.82-10.66-15.16-26.25-8.92-40.38-26.84-14.61-18.54,5.29-35.5-5-96.7-5.39-32-9.69-65.67.84-96.4,4.82-14,11.81-25.4,12.35-45.65.27-10.21.79-29.42-11.67-44.59S281.62,4.62,262.65,1.85Z"/>
      </g>
    </g>
  </g>
</svg>
