<svg xmlns="http://www.w3.org/2000/svg" viewBox="0 0 103.43 106.21">
  <defs>
    <style>
      .cls-1 {
        opacity: 0.31;
      }

      .cls-2 {
        fill: #101b37;
      }

      .cls-3 {
        fill: #fcfcfc;
      }

      .cls-4 {
        fill: #fff;
      }

      .cls-5 {
        fill: #ff0387;
      }
    </style>
  </defs>
  <g id="Layer_2" data-name="Layer 2">
    <g id="Layer_10" data-name="Layer 10">
      <g>
        <g class="cls-1">
          <rect class="cls-2" x="13.08" y="21.66" width="71.62" height="71.62" rx="10.64"/>
        </g>
        <g>
          <path class="cls-3" d="M54.6,106.21H10a10,10,0,0,1-10-10V51.61a10,10,0,0,1,10-10H54.6a10,10,0,0,1,10,10V96.2A10,10,0,0,1,54.6,106.21ZM10,45a6.65,6.65,0,0,0-6.65,6.65V96.2A6.65,6.65,0,0,0,10,102.85H54.6a6.65,6.65,0,0,0,6.65-6.65V51.61A6.65,6.65,0,0,0,54.6,45Z"/>
          <rect class="cls-3" x="1.68" y="57.44" width="61.25" height="3.36"/>
          <path class="cls-3" d="M18,38.59V48.67a2.4,2.4,0,0,0,4.8,0V38.59a2.4,2.4,0,1,0-4.8,0Z"/>
          <path class="cls-3" d="M41.14,38.24V48.32a2.4,2.4,0,0,0,4.8,0V38.24a2.4,2.4,0,0,0-4.8,0Z"/>
          <path class="cls-4" d="M18.21,79.1h-3a4.84,4.84,0,0,1-4.84-4.84v-3a4.84,4.84,0,0,1,4.84-4.84h3A4.84,4.84,0,0,1,23,71.31v3A4.84,4.84,0,0,1,18.21,79.1Zm-3-10.63a2.84,2.84,0,0,0-2.84,2.84v3a2.84,2.84,0,0,0,2.84,2.84h3A2.84,2.84,0,0,0,21,74.26v-3a2.84,2.84,0,0,0-2.83-2.84Z"/>
          <path class="cls-4" d="M33.65,78.79H30.7A4.84,4.84,0,0,1,25.86,74V71a4.84,4.84,0,0,1,4.84-4.84h2.95A4.84,4.84,0,0,1,38.49,71v3A4.84,4.84,0,0,1,33.65,78.79ZM30.7,68.16A2.84,2.84,0,0,0,27.86,71v3a2.84,2.84,0,0,0,2.84,2.84h2.95A2.85,2.85,0,0,0,36.49,74V71a2.84,2.84,0,0,0-2.84-2.84Z"/>
          <path class="cls-4" d="M18.21,94.56h-3a4.84,4.84,0,0,1-4.84-4.84v-3a4.84,4.84,0,0,1,4.84-4.84h3A4.84,4.84,0,0,1,23,86.77v3A4.84,4.84,0,0,1,18.21,94.56Zm-3-10.63a2.84,2.84,0,0,0-2.84,2.84v3a2.84,2.84,0,0,0,2.84,2.84h3A2.84,2.84,0,0,0,21,89.72v-3a2.84,2.84,0,0,0-2.83-2.84Z"/>
        </g>
      </g>
      <g>
        <path class="cls-5" d="M85.72,12.32l3.75-10A1.89,1.89,0,0,0,88.16.06a1.92,1.92,0,0,0-2.31,1.31l-3.74,10a1.88,1.88,0,0,0,1.31,2.31,1.92,1.92,0,0,0,2.3-1.31Z"/>
        <path class="cls-5" d="M92,20.91,102,17.07a1.92,1.92,0,0,0,1.31-2.31,1.9,1.9,0,0,0-2.3-1.31L91,17.3a1.87,1.87,0,1,0,1,3.61Z"/>
        <path class="cls-5" d="M93.74,30.33l6.09,3.61a1.87,1.87,0,1,0,1.89-3.23l-6.08-3.62a1.88,1.88,0,0,0-1.9,3.24Z"/>
      </g>
    </g>
  </g>
</svg>
