<svg xmlns="http://www.w3.org/2000/svg" viewBox="0 0 412.09 281.18">
  <defs>
    <style>
      .cls-1 {
        opacity: 0.39;
      }

      .cls-2 {
        fill: #ff0387;
      }
    </style>
  </defs>
  <g id="Layer_2" data-name="Layer 2">
    <g id="Layer_11" data-name="Layer 11">
      <g class="cls-1">
        <path class="cls-2" d="M6.27,48.39C-4.9,75.86-.6,108,14.84,133a89.67,89.67,0,0,0,30.59,30.33c16.32,9.56,35.23,13.41,53.79,15.78,35.61,4.53,76.61,4,104.84,29.76,13,11.84,21.5,27.53,33.51,40.23a72.81,72.81,0,0,0,20.69,15.47A112.41,112.41,0,0,0,284,273.08c9.41,2.05,19,3.47,28.49,4.92a242,242,0,0,0,31.55,3.16c18,.35,36.67-3,51.67-13.39a58.57,58.57,0,0,0,9.31-8c.33-.36-.2-.89-.53-.54-12.36,13.2-30.31,19.43-48,20.87-20.62,1.68-41.53-2.13-61.78-5.66-17.9-3.12-36.24-7.74-50.36-19.82-13-11.15-21.54-26.35-32.81-39.09s-25.83-21.29-42.11-26.36c-17-5.28-34.75-7.06-52.36-8.82-19.07-1.91-38.47-3.9-56.53-10.69a88.77,88.77,0,0,1-38-27.05C3.88,119.62-4,87.53,3.58,58.75A85.94,85.94,0,0,1,7,48.59c.18-.45-.54-.64-.72-.2Z"/>
        <path class="cls-2" d="M17.9,45.87c-10.2,26.62-5.63,57.61,9.57,81.67a88.23,88.23,0,0,0,29.82,29.23c14.34,8.37,30.71,12.27,47,14.66,1.7.25,3.41.49,5.11.71,33.47,4.33,71.72,4,99.15,26.09.9.72,1.78,1.46,2.66,2.24,12.68,11.21,21.15,26.08,32.93,38.16a72.66,72.66,0,0,0,20.17,14.75,113.38,113.38,0,0,0,25,8.28l3.55.76c8,1.65,16,2.92,24,4.23a245.72,245.72,0,0,0,30.39,3.51c12.55.49,25.44-.83,37-5.24A63.31,63.31,0,0,0,394.39,260c.74-.44,1.5-.92,2.22-1.44a57.45,57.45,0,0,0,8.81-7.9c.31-.34-.19-.85-.5-.52C393.15,262.28,376,267.84,359,268.91a158.25,158.25,0,0,1-29.23-1.19c-10.19-1.25-20.35-3.13-30.36-4.91-17.31-3.09-35.08-7.55-48.83-19-6.71-5.6-12.23-12.26-17.56-19.08-4.77-6.09-9.39-12.3-14.6-18-11.11-12.16-25.17-20.16-40.95-25-16.47-5-33.68-6.71-50.75-8.44-18.45-1.88-37.21-3.88-54.7-10.46A87,87,0,0,1,35.1,136.77C17.09,115,9,84.76,15.2,57.26c.1-.47.21-.93.32-1.4a81.78,81.78,0,0,1,2.65-8.67c.14-.4.28-.78.42-1.16s-.52-.59-.69-.16Z"/>
        <path class="cls-2" d="M29.54,43.35c-9.24,25.77-4.4,55.58,10.56,78.74a86.78,86.78,0,0,0,29.05,28.14c13.91,8.08,29.75,11.91,45.56,14.27,1.65.24,3.31.47,5,.69,32.43,4.29,69.42,3.9,96.18,24.78.87.68,1.73,1.39,2.59,2.12,12.39,10.58,20.81,24.63,32.34,36.08a72.11,72.11,0,0,0,19.67,14,114.47,114.47,0,0,0,24.21,8l3.43.75c7.7,1.65,15.46,3,23.18,4.32a258.39,258.39,0,0,0,29.22,3.86c12,.71,24.33-.25,35.28-4.09a59.36,59.36,0,0,0,9.56-4.35,20.23,20.23,0,0,0,2.14-1.37,56.29,56.29,0,0,0,8.31-7.73c.29-.33-.18-.82-.48-.52-11.13,11.1-27.57,15.95-43.89,16.66a159.31,159.31,0,0,1-28.11-1.58c-9.82-1.31-19.62-3.19-29.29-5-16.72-3.06-33.91-7.35-47.3-18.23-6.54-5.31-11.95-11.61-17.19-18.06-4.68-5.75-9.22-11.62-14.32-17-10.86-11.48-24.52-19-39.79-23.56-16-4.73-32.61-6.35-49.13-8.06-17.84-1.84-36-3.85-52.87-10.22A85.56,85.56,0,0,1,47.65,131C30,110,21.78,80.92,27.18,54.32c.09-.45.18-.9.28-1.34a82.92,82.92,0,0,1,2.36-8.4c.13-.39.25-.75.38-1.1s-.51-.54-.66-.13Z"/>
        <path class="cls-2" d="M41.17,40.83C32.91,65.75,38,94.39,52.73,116.65a85.51,85.51,0,0,0,28.27,27c13.48,7.79,28.8,11.54,44.09,13.87,1.6.24,3.2.47,4.8.68,31.41,4.24,67.13,3.84,93.21,23.47.85.64,1.7,1.31,2.53,2,12.1,10,20.47,23.19,31.76,34a72.61,72.61,0,0,0,19.15,13.33A116.78,116.78,0,0,0,300,238.82c1.1.26,2.21.51,3.31.75,7.43,1.64,14.92,3,22.35,4.39a268,268,0,0,0,28.05,4.21c11.52.94,23.22.35,33.57-2.93a54.32,54.32,0,0,0,9-3.8,13.6,13.6,0,0,0,2.06-1.28,56.44,56.44,0,0,0,7.81-7.57c.27-.32-.18-.79-.46-.52-10.51,10.06-26.2,14.21-41.83,14.56a162.2,162.2,0,0,1-27-2c-9.45-1.37-18.9-3.26-28.23-5-16.14-3-32.74-7.16-45.78-17.45-6.36-5-11.66-11-16.8-17-4.59-5.42-9.06-10.94-14.05-16-10.61-10.8-23.86-17.88-38.63-22.15-15.45-4.46-31.54-6-47.51-7.69-17.24-1.81-34.73-3.82-51.05-10a84.46,84.46,0,0,1-34.63-24.13C42.92,105,34.55,77.09,39.16,51.39l.24-1.3A83.47,83.47,0,0,1,41.48,42c.11-.37.2-.71.32-1s-.5-.5-.63-.1Z"/>
        <path class="cls-2" d="M52.81,38.32c-7.3,24.06-1.93,51.52,12.55,72.88a83.94,83.94,0,0,0,27.5,25.94c13,7.51,27.84,11.19,42.61,13.48,1.55.24,3.1.47,4.64.68,30.39,4.18,64.83,3.77,90.24,22.16.83.6,1.66,1.22,2.47,1.86,11.8,9.33,20.13,21.74,31.18,32a72.55,72.55,0,0,0,18.63,12.61,119.28,119.28,0,0,0,22.66,7.52l3.2.75c7.17,1.62,14.38,3,21.52,4.46,9,1.85,18,3.62,26.89,4.56,11,1.18,22.1,1,31.85-1.77a51.29,51.29,0,0,0,8.47-3.24,10.27,10.27,0,0,0,2-1.21,54.9,54.9,0,0,0,7.3-7.4c.26-.31-.16-.76-.43-.52-9.89,9-24.83,12.47-39.77,12.46a168,168,0,0,1-25.86-2.35c-9.07-1.45-18.16-3.34-27.16-5.08-15.55-3-31.57-7-44.25-16.66-6.19-4.72-11.39-10.31-16.43-16-4.5-5.09-8.89-10.27-13.76-15-10.38-10.11-23.22-16.73-37.48-20.74-14.93-4.18-30.47-5.66-45.89-7.31-16.63-1.78-33.49-3.8-49.23-9.76a83.22,83.22,0,0,1-33.5-23.15c-16.9-19.41-25.41-46.18-21.59-71,.06-.42.13-.84.2-1.26.46-2.66,1.09-5.27,1.79-7.85.1-.36.17-.68.27-1s-.48-.44-.59,0Z"/>
        <path class="cls-2" d="M64.44,35.8C58.11,59,63.75,85.3,78,105.75a82.9,82.9,0,0,0,26.74,24.85c12.61,7.22,26.87,10.82,41.14,13.08,1.49.24,3,.46,4.47.67,29.37,4.13,62.54,3.7,87.28,20.85q1.21.84,2.4,1.74c11.51,8.7,19.79,20.28,30.59,29.87a73.73,73.73,0,0,0,18.12,11.91A123.49,123.49,0,0,0,310.61,216l3.08.74c6.9,1.62,13.84,3,20.69,4.55,8.65,1.91,17.24,3.78,25.72,4.91,10.48,1.4,21,1.54,30.14-.62a48.22,48.22,0,0,0,7.92-2.69,7.11,7.11,0,0,0,1.89-1.12,54.83,54.83,0,0,0,6.8-7.24c.24-.3-.15-.73-.41-.51-9.27,8-23.45,10.73-37.71,10.35A172.1,172.1,0,0,1,344,221.61c-8.7-1.51-17.44-3.4-26.1-5.13-15-3-30.4-6.78-42.72-15.87a116.66,116.66,0,0,1-16.05-15c-4.42-4.76-8.73-9.59-13.49-14-10.13-9.43-22.56-15.6-36.32-19.34-14.42-3.9-29.41-5.3-44.28-6.93-16-1.74-32.24-3.77-47.39-9.53a81.79,81.79,0,0,1-32.37-22.17C68.73,95,60.09,69.42,63.12,45.52c.05-.4.11-.8.16-1.21.37-2.56.91-5.07,1.51-7.57.08-.35.13-.65.21-.92s-.46-.4-.56,0Z"/>
        <path class="cls-2" d="M76.07,33.28c-5.36,22.36.55,47.47,14.54,67a81.82,81.82,0,0,0,26,23.75c12.18,6.94,25.91,10.46,39.66,12.69,1.44.23,2.88.45,4.32.65,28.34,4.08,60.23,3.64,84.3,19.54q1.19.78,2.34,1.62c11.22,8.07,19.44,18.83,30,27.8a74.36,74.36,0,0,0,17.6,11.19,128.07,128.07,0,0,0,21.11,7l3,.74c6.63,1.61,13.29,3.06,19.86,4.62,8.29,2,16.5,4,24.55,5.26,10,1.63,19.88,2.14,28.43.54a46,46,0,0,0,7.37-2.13,5.68,5.68,0,0,0,1.8-1,54.39,54.39,0,0,0,6.31-7.08c.21-.29-.15-.7-.38-.51-8.66,6.93-22.09,9-35.66,8.25a181.76,181.76,0,0,1-23.6-3.13c-8.34-1.58-16.72-3.47-25-5.19-14.38-3-29.23-6.58-41.19-15.07a115.9,115.9,0,0,1-15.67-14c-4.34-4.42-8.57-8.91-13.22-13-9.88-8.75-21.9-14.46-35.16-17.94-13.91-3.62-28.34-4.95-42.66-6.55-15.41-1.71-31-3.75-45.57-9.3a80.57,80.57,0,0,1-31.24-21.2C81.64,90,72.86,65.59,75.1,42.59l.12-1.16c.28-2.47.73-4.89,1.22-7.3.07-.35.1-.62.16-.86s-.44-.35-.53,0Z"/>
        <path class="cls-2" d="M87.71,30.76c-4.4,21.52,1.81,45.42,15.53,64.1a81.22,81.22,0,0,0,25.2,22.66c11.74,6.65,24.95,10.09,38.18,12.29,1.39.23,2.77.44,4.16.65,27.32,4,57.94,3.57,81.33,18.23.77.48,1.53,1,2.28,1.49,10.93,7.44,19.1,17.38,29.43,25.72a75.41,75.41,0,0,0,17.09,10.48,133.51,133.51,0,0,0,20.33,6.76l2.84.73c6.37,1.61,12.76,3.09,19.05,4.7,7.92,2,15.74,4.12,23.38,5.61,9.44,1.87,18.76,2.74,26.71,1.69A42,42,0,0,0,400,204.3a4.22,4.22,0,0,0,1.72-1,54.08,54.08,0,0,0,5.81-6.91c.19-.29-.14-.67-.36-.51-8,5.9-20.72,7.25-33.6,6.15a194.38,194.38,0,0,1-22.48-3.52c-8-1.64-16-3.54-24-5.24-13.8-2.94-28.06-6.39-39.66-14.29a115.85,115.85,0,0,1-15.3-12.93c-4.24-4.09-8.4-8.23-12.94-12-9.64-8.07-21.25-13.32-34-16.53-13.39-3.35-27.27-4.61-41-6.18-14.8-1.68-29.75-3.72-43.75-9.06a79.72,79.72,0,0,1-30.11-20.23C94.54,85,85.62,61.75,87.08,39.66c0-.38,0-.75.08-1.12.2-2.37.56-4.71.94-7,.05-.34.05-.59.1-.81s-.42-.3-.49.05Z"/>
        <path class="cls-2" d="M99.34,28.25c-3.43,20.66,3.06,43.38,16.53,61.16A80.17,80.17,0,0,0,140.3,111c11.31,6.36,24,9.73,36.71,11.89,1.33.23,2.66.44,4,.64,26.29,4,55.64,3.51,78.37,16.92.74.44,1.48.89,2.21,1.36,10.64,6.82,18.76,15.94,28.84,23.66A78.12,78.12,0,0,0,307,175.22a143.13,143.13,0,0,0,19.55,6.5l2.73.73c6.11,1.6,12.22,3.11,18.22,4.78,7.56,2.1,15,4.28,22.21,6,8.92,2.09,17.66,3.34,25,2.84a41.07,41.07,0,0,0,6.27-1,3.37,3.37,0,0,0,1.64-.88,52.6,52.6,0,0,0,5.3-6.76c.18-.27-.13-.63-.33-.5-7.44,4.88-19.35,5.52-31.54,4.05-6.94-.84-14.11-2.28-21.35-3.9-7.59-1.72-15.26-3.62-22.91-5.3-13.21-2.92-26.89-6.2-38.13-13.5a116.66,116.66,0,0,1-14.92-11.91c-4.16-3.75-8.24-7.55-12.67-11-9.39-7.39-20.59-12.19-32.84-15.13-12.88-3.08-26.2-4.26-39.42-5.8-14.19-1.64-28.51-3.69-41.92-8.83a78.44,78.44,0,0,1-29-19.25C107.44,80.05,98.39,57.92,99.06,36.72c0-.35,0-.71,0-1.07.11-2.27.38-4.52.65-6.75,0-.32,0-.55,0-.74s-.41-.25-.46.09Z"/>
        <path class="cls-2" d="M111,25.73C108.51,45.54,115.27,67.08,128.5,84a79.74,79.74,0,0,0,23.65,20.47c10.88,6.07,23,9.36,35.24,11.49,1.28.23,2.56.43,3.83.63,25.27,3.92,53.35,3.44,75.4,15.62.72.39,1.44.81,2.15,1.23C279.12,139.59,287.19,147.9,297,155a81.13,81.13,0,0,0,16.06,9.06,155.84,155.84,0,0,0,18.77,6.25l2.62.72c5.84,1.6,11.68,3.15,17.39,4.86,7.2,2.16,14.25,4.45,21,6.31,8.4,2.32,16.55,3.94,23.29,4a42.14,42.14,0,0,0,5.72-.45,2.69,2.69,0,0,0,1.56-.81,52.85,52.85,0,0,0,4.8-6.59c.16-.26-.12-.6-.31-.5-6.83,3.85-18,3.78-29.48,1.94-6.55-1-13.34-2.6-20.23-4.28-7.21-1.78-14.53-3.68-21.84-5.36-12.62-2.88-25.72-6-36.61-12.7a121.06,121.06,0,0,1-14.54-10.89c-4.07-3.42-8.07-6.86-12.38-10-9.17-6.7-19.95-11-31.69-13.73-12.37-2.8-25.14-3.9-37.81-5.41-13.58-1.62-27.26-3.68-40.09-8.61a77.89,77.89,0,0,1-27.85-18.27C120.34,75.06,111.16,54.08,111,33.79v-1c0-2.17.2-4.33.37-6.47,0-.31,0-.52,0-.68s-.4-.21-.43.12Z"/>
        <path class="cls-2" d="M122.61,23.21c-1.49,19,5.53,39.33,18.52,55.31A79.05,79.05,0,0,0,164,97.9c10.45,5.78,22.07,9,33.76,11.09,1.23.22,2.45.43,3.68.63,24.24,3.86,51,3.37,72.42,14.3.71.36,1.4.73,2.1,1.11,10,5.55,18.07,13,27.67,19.51a85.48,85.48,0,0,0,15.54,8.34,173.41,173.41,0,0,0,18,6l2.5.72c5.57,1.58,11.14,3.17,16.56,4.93,6.84,2.23,13.51,4.61,19.88,6.66,7.88,2.56,15.43,4.54,21.57,5.16,1.86.19,3.6-.1,5.17.1a2,2,0,0,0,1.48-.72,52.56,52.56,0,0,0,4.3-6.43c.14-.25-.11-.57-.28-.49-6.25,2.83-16.61,2-27.43-.17-6.16-1.24-12.58-2.92-19.1-4.67-6.85-1.84-13.81-3.75-20.78-5.41-12-2.86-24.56-5.81-35.08-11.91a125.58,125.58,0,0,1-14.16-9.87c-4-3.08-7.91-6.18-12.11-9-8.92-6-19.29-9.91-30.53-12.33-11.85-2.52-24.07-3.55-36.19-5-13-1.58-26-3.65-38.27-8.38A77.27,77.27,0,0,1,148,84.74c-14.75-14.67-24.06-34.49-25-53.88,0-.33,0-.66,0-1-.06-2.08,0-4.14.09-6.19a5.13,5.13,0,0,0-.06-.63c0-.16-.38-.15-.4.16Z"/>
        <path class="cls-2" d="M134.24,20.69C133.72,38.8,141,58,153.76,73.07a79,79,0,0,0,22.11,18.29c10,5.49,21.11,8.64,32.28,10.7,1.17.21,2.35.42,3.52.61,23.22,3.81,48.75,3.31,69.46,13,.68.32,1.36.65,2,1,9.76,4.92,17.72,11.58,27.08,17.44a94.13,94.13,0,0,0,15,7.63c5.61,2.23,11.43,4,17.22,5.74l2.39.71c5.31,1.58,10.59,3.2,15.73,5,6.48,2.29,12.76,4.77,18.71,7a147.43,147.43,0,0,0,19.86,6.31c1.68.35,3.23.46,4.62.66a1.71,1.71,0,0,0,1.4-.64,53.91,53.91,0,0,0,3.8-6.27c.12-.24-.11-.54-.26-.49-5.67,1.82-15.24.29-25.37-2.27-5.76-1.45-11.81-3.25-18-5.06-6.47-1.91-13.08-3.82-19.71-5.46-11.45-2.84-23.39-5.61-33.55-11.13A132.69,132.69,0,0,1,298.35,127c-3.9-2.75-7.75-5.49-11.84-8-8.67-5.33-18.64-8.77-29.37-10.93-11.34-2.24-23-3.2-34.57-4.65-12.36-1.55-24.77-3.62-36.44-8.15A76.67,76.67,0,0,1,160.54,79c-14.41-13.86-23.84-32.54-25.54-51,0-.31-.05-.62-.08-.93-.15-2-.17-4-.2-5.92a2.32,2.32,0,0,0-.11-.57c0-.13-.36-.1-.37.19Z"/>
        <path class="cls-2" d="M145.88,18.18c.44,17.25,8,35.26,20.51,49.45a78.88,78.88,0,0,0,21.34,17.19c9.58,5.21,20.14,8.27,30.81,10.3,1.11.21,2.23.41,3.35.6,22.2,3.77,46.46,3.25,66.49,11.69.66.27,1.32.56,2,.86,9.46,4.29,17.38,10.13,26.5,15.36a103.36,103.36,0,0,0,14.52,6.92c5.37,2.07,10.92,3.78,16.44,5.49l2.26.71c5.05,1.57,10.06,3.23,14.91,5.09,6.12,2.35,12,4.94,17.54,7.36,6.84,3,13.2,5.73,18.15,7.47,1.5.52,2.89.81,4.07,1.21a1.36,1.36,0,0,0,1.32-.56,52.59,52.59,0,0,0,3.29-6.1c.11-.23-.09-.51-.23-.49-5.12.81-13.87-1.44-23.31-4.37-5.37-1.66-11-3.58-16.85-5.44-6.1-2-12.35-3.9-18.65-5.53-10.87-2.81-22.22-5.41-32-10.33a148.43,148.43,0,0,1-13.41-7.81c-3.81-2.42-7.58-4.82-11.56-7-8.42-4.65-18-7.64-28.21-9.52-10.83-2-21.93-2.85-33-4.28-11.75-1.52-23.52-3.6-34.61-7.91a76.76,76.76,0,0,1-24.46-15.35C159,60.1,149.47,42.58,147,25l-.12-.89c-.24-1.89-.35-3.78-.48-5.64a1.19,1.19,0,0,0-.17-.51c0-.1-.34-.06-.33.23Z"/>
        <path class="cls-2" d="M157.51,15.66c1.41,16.4,9.24,33.24,21.51,46.52a79.52,79.52,0,0,0,20.57,16.1c9.15,4.92,19.18,7.91,29.33,9.9,1.06.21,2.13.41,3.19.59,21.18,3.72,44.16,3.18,63.53,10.38l1.9.73c9.17,3.67,17,8.69,25.92,13.3a122.14,122.14,0,0,0,14,6.2c5.14,1.91,10.43,3.55,15.66,5.25l2.15.7c4.78,1.56,9.52,3.25,14.08,5.17,5.76,2.41,11.27,5.1,16.38,7.7,6.32,3.25,12.08,6.33,16.43,8.62,1.31.7,2.54,1.19,3.52,1.78a1.09,1.09,0,0,0,1.24-.48,51,51,0,0,0,2.79-5.94.39.39,0,0,0-.21-.49c-4.61-.22-12.49-3.18-21.25-6.47-5-1.86-10.27-3.9-15.72-5.83-5.73-2-11.63-4-17.59-5.58-10.28-2.78-21.05-5.22-30.49-9.54-4.64-2.11-8.88-4.46-13-6.79-3.73-2.09-7.41-4.14-11.29-6a98.61,98.61,0,0,0-27.05-8.12c-10.31-1.69-20.86-2.5-31.34-3.9C230.6,88,219.46,85.87,209,81.76a77.06,77.06,0,0,1-23.33-14.37C171.92,55.12,162.24,38.75,159,22.06c-.05-.28-.11-.57-.16-.85-.33-1.79-.53-3.59-.77-5.36a.76.76,0,0,0-.22-.46c-.05-.06-.32,0-.3.27Z"/>
        <path class="cls-2" d="M169.15,13.14c2.37,15.56,10.46,31.22,22.5,43.59a80.34,80.34,0,0,0,19.8,15,102.73,102.73,0,0,0,27.85,9.5c1,.21,2,.4,3,.59,20.14,3.66,41.86,3.11,60.55,9.07.62.19,1.23.39,1.84.6,8.88,3,16.7,7.24,25.34,11.22q6.42,3,13.48,5.5c4.91,1.74,9.93,3.31,14.89,5l2,.69c4.52,1.56,9,3.28,13.25,5.25a161.68,161.68,0,0,1,15.21,8.06A165.23,165.23,0,0,1,403.65,137a32.55,32.55,0,0,1,3,2.34c.21.21.93.08,1.16-.4a50.32,50.32,0,0,0,2.29-5.78.43.43,0,0,0-.19-.48c-4.13-1.31-11.12-4.93-19.19-8.58-4.59-2.07-9.51-4.23-14.6-6.22-5.36-2.11-10.9-4-16.52-5.63-9.7-2.76-19.88-5-29-8.75-4.47-1.82-8.61-3.81-12.66-5.77-3.63-1.75-7.24-3.46-11-5A108.88,108.88,0,0,0,281.05,86c-9.8-1.41-19.8-2.15-29.72-3.52-10.53-1.45-21-3.55-31-7.45a77.75,77.75,0,0,1-22.2-13.39C184.8,50.14,175,34.91,170.94,19.13c-.06-.27-.13-.54-.2-.81-.41-1.69-.72-3.4-1.05-5.09a.53.53,0,0,0-.28-.39.24.24,0,0,0-.26.3Z"/>
        <path class="cls-2" d="M180.78,10.62c3.34,14.71,11.7,29.19,23.5,40.67a82.51,82.51,0,0,0,19,13.91,102.47,102.47,0,0,0,26.38,9.11q1.44.3,2.88.57c19.12,3.61,39.56,3.05,57.58,7.76.6.15,1.19.31,1.78.48,8.59,2.41,16.36,5.79,24.75,9.15q6.25,2.51,13,4.78c4.68,1.58,9.43,3.08,14.11,4.74l1.92.69a110.26,110.26,0,0,1,26.46,13.73,82.5,82.5,0,0,1,13,10.93,22.46,22.46,0,0,1,2.42,2.89c.17.27.89.17,1.08-.32a50.11,50.11,0,0,0,1.79-5.61.52.52,0,0,0-.16-.48,196.77,196.77,0,0,0-17.14-10.68c-4.19-2.28-8.74-4.55-13.47-6.61a137.7,137.7,0,0,0-15.46-5.68c-9.11-2.74-18.71-4.84-27.44-8-4.29-1.52-8.32-3.16-12.27-4.74-3.55-1.42-7.08-2.78-10.73-4A125,125,0,0,0,289,78.6c-9.3-1.14-18.74-1.79-28.11-3.14a128.14,128.14,0,0,1-29.14-7.22,79.24,79.24,0,0,1-21.07-12.41c-13-10.66-22.93-24.75-27.79-39.64l-.24-.75c-.5-1.61-.91-3.22-1.34-4.82a.4.4,0,0,0-.33-.33.25.25,0,0,0-.23.33Z"/>
        <path class="cls-2" d="M192.42,8.11c4.3,13.85,12.92,27.16,24.49,37.73a85.25,85.25,0,0,0,18.25,12.82,102.22,102.22,0,0,0,24.91,8.71c.9.2,1.81.39,2.71.56,18.1,3.56,37.27,3,54.62,6.45l1.71.36a221.78,221.78,0,0,1,24.17,7.07c4.05,1.37,8.2,2.72,12.45,4.08,4.45,1.41,8.93,2.84,13.33,4.48l1.81.68a93.4,93.4,0,0,1,11.6,5.41,87,87,0,0,1,12.87,8.76,55.11,55.11,0,0,1,11.29,12.08,20,20,0,0,1,1.87,3.45c.13.32.85.24,1-.24a44.59,44.59,0,0,0,1.28-5.46.66.66,0,0,0-.13-.47,70.65,70.65,0,0,0-15.08-12.78,112.19,112.19,0,0,0-12.35-7,108.4,108.4,0,0,0-14.39-5.74c-8.52-2.71-17.54-4.64-25.91-7.17-4.12-1.24-8-2.51-11.89-3.72-3.47-1.08-6.92-2.1-10.46-3A156.23,156.23,0,0,0,297,71.24c-8.78-.87-17.67-1.45-26.5-2.77a121.5,121.5,0,0,1-27.31-7A81.77,81.77,0,0,1,223.26,50,90.23,90.23,0,0,1,194.9,13.26c-.09-.24-.18-.47-.28-.71C194,11,193.52,9.52,193,8c-.09-.25-.27-.3-.38-.28a.28.28,0,0,0-.2.38Z"/>
        <path class="cls-2" d="M204.05,5.59a91.47,91.47,0,0,0,25.49,34.8A90,90,0,0,0,247,52.12a102.63,102.63,0,0,0,23.43,8.31c.85.2,1.7.38,2.55.56,17.08,3.5,35,2.91,51.65,5.14l1.65.23a200.5,200.5,0,0,1,23.59,5c3.92,1,7.91,2.16,11.94,3.36C366,76,370.26,77.33,374.38,79l1.69.68a73.66,73.66,0,0,1,10.77,5.48,68.34,68.34,0,0,1,11.7,9.11,42.85,42.85,0,0,1,9.58,13.24,20.56,20.56,0,0,1,1.32,4c.08.38.81.33.92-.16a43,43,0,0,0,.78-5.29,1,1,0,0,0-.11-.47c-2.36-4.84-7-10.14-13-14.88a78.8,78.8,0,0,0-11.22-7.38,84.89,84.89,0,0,0-13.33-5.8c-7.94-2.68-16.37-4.45-24.38-6.38-3.95-.95-7.77-1.86-11.52-2.7-3.38-.74-6.74-1.43-10.18-2A222.47,222.47,0,0,0,305,63.87c-8.27-.59-16.6-1.1-24.88-2.39a116.24,116.24,0,0,1-25.48-6.75A86.91,86.91,0,0,1,235.8,44.26a94,94,0,0,1-28.91-33.93l-.33-.67c-.68-1.41-1.29-2.84-1.91-4.26a.33.33,0,0,0-.43-.22.31.31,0,0,0-.17.41Z"/>
        <path class="cls-2" d="M215.68,3.07A97.66,97.66,0,0,0,242.17,35a96.73,96.73,0,0,0,16.71,10.63,103.33,103.33,0,0,0,21.95,7.91c.8.19,1.6.38,2.39.55,16.06,3.45,32.68,2.85,48.68,3.83l1.59.1a187.11,187.11,0,0,1,23,2.93c3.81.75,7.62,1.61,11.43,2.65a97.56,97.56,0,0,1,11.77,4l1.57.67a60.31,60.31,0,0,1,9.95,5.56,54.56,54.56,0,0,1,10.53,9.46,37,37,0,0,1,7.87,14.4,24.43,24.43,0,0,1,.77,4.56c0,.43.77.4.84-.08A38.35,38.35,0,0,0,411.5,97a1.71,1.71,0,0,0-.09-.47c-1.66-6-5.64-11.88-11-17a59.35,59.35,0,0,0-10.09-7.77,66.68,66.68,0,0,0-12.27-5.85,135.8,135.8,0,0,0-22.85-5.59c-3.78-.66-7.49-1.21-11.14-1.68-3.29-.41-6.58-.75-9.91-1-6.94-.59-14.05-.8-21.25-1.1a189.46,189.46,0,0,1-23.26-2A110.08,110.08,0,0,1,266,48a95.13,95.13,0,0,1-17.68-9.49A99.15,99.15,0,0,1,218.87,7.39c-.13-.2-.25-.41-.37-.62-.76-1.31-1.48-2.65-2.19-4a.35.35,0,0,0-.49-.16.32.32,0,0,0-.14.44Z"/>
        <path class="cls-2" d="M227.32.55a106.1,106.1,0,0,0,27.48,29,108,108,0,0,0,36.41,17c15.74,4,31.85,3.34,48,3.07,15.94-.28,32.63.16,47.3,7.16,12.23,5.83,22.85,17.15,24.64,31a30.14,30.14,0,0,1,.22,5.12.38.38,0,0,0,.75,0c.47-13.26-7.57-25.3-18.15-32.68-12.52-8.73-28.38-11-43.28-11.35-17.13-.43-34.38,1.56-51.38-1.37a106.26,106.26,0,0,1-38.37-14.8,106.13,106.13,0,0,1-30-28.24q-1.5-2.1-2.88-4.29c-.26-.4-.91,0-.65.38Z"/>
      </g>
    </g>
  </g>
</svg>
