<?xml version="1.0" encoding="utf-8"?>
<!-- Generator: Adobe Illustrator 24.1.2, SVG Export Plug-In . SVG Version: 6.00 Build 0)  -->
<svg version="1.1" id="Layer_1" xmlns="http://www.w3.org/2000/svg" xmlns:xlink="http://www.w3.org/1999/xlink" x="0px" y="0px"
	 viewBox="0 0 825 830" style="enable-background:new 0 0 825 830;" xml:space="preserve">
<style type="text/css">
	.st0{opacity:0.33;}
	.st1{opacity:0.28;}
	.st2{fill:#2AC3EA;}
	.st3{opacity:0.325;}
	.st4{opacity:0.37;}
	.st5{opacity:0.415;}
	.st6{opacity:0.46;}
	.st7{opacity:0.505;}
	.st8{opacity:0.55;}
	.st9{opacity:0.595;}
	.st10{opacity:0.64;}
	.st11{opacity:0.685;}
	.st12{opacity:0.73;}
	.st13{opacity:0.775;}
	.st14{opacity:0.82;}
	.st15{opacity:0.865;}
	.st16{opacity:0.91;}
	.st17{opacity:0.955;}
	.st18{opacity:0.38;}
	.st19{opacity:0.1;}
	.st20{fill:#ED2387;}
	.st21{opacity:0.1563;}
	.st22{opacity:0.2125;}
	.st23{opacity:0.2688;}
	.st24{opacity:0.3812;}
	.st25{opacity:0.4375;}
	.st26{opacity:0.4938;}
	.st27{opacity:0.6062;}
	.st28{opacity:0.6625;}
	.st29{opacity:0.7188;}
	.st30{opacity:0.8313;}
	.st31{opacity:0.8875;}
	.st32{opacity:0.9438;}
</style>
<g class="st18">
	<g class="st19">
		<g>
			<path class="st20" d="M58.4,136.7c46.5,0.7,93,5.2,138.7,14.4c38.9,7.9,77.3,19.1,113.6,35.3c29.3,13.1,57.7,29.3,81.7,50.8
				c18.6,16.7,35.1,37,43.2,60.9c4.6,13.6,6.1,28.1,6.3,42.4c0.4,21.7-2.5,43.5-9.5,64c-14.4,42.8-48.1,74.8-74.9,109.9
				C344.3,531.7,333,550,325,570.3c-7.7,19.6-13,40.1-21.6,59.3c-8.1,18-19.5,35-37.1,44.9c-16.6,9.3-36.2,12.2-55,11.4
				c-37.5-1.5-74-17.2-98.5-45.9c-15.2-17.8-26-39.8-31.4-62.6c-0.4-1.8-0.8-3.5-1.1-5.3c-0.8-4.5-7.7-2.6-6.9,1.9
				c3.1,18.4,11,36.6,20.8,52.4c8.8,14.3,19.9,27.1,33.2,37.3c15.5,12,33.5,20.1,52.4,24.8c37.4,9.3,83.2,6.5,110.4-24.2
				c14.3-16.1,22.3-36.3,29.3-56.4c7.1-20.6,13.5-41.5,24.4-60.5c22.5-39.1,57.1-69.4,80.2-108.1c22-37,29.3-81.9,22.9-124.3
				c-3.8-25.3-16.6-47.9-33.5-66.8c-20.7-23.3-47.1-41.4-74.5-56c-34.2-18.2-71.1-31.2-108.6-40.8C186,140,140.3,133.5,94.5,130.8
				c-12-0.7-24.1-1.1-36.2-1.3C53.8,129.4,53.8,136.6,58.4,136.7L58.4,136.7z"/>
		</g>
	</g>
	<g class="st21">
		<g>
			<path class="st20" d="M60.6,142.5c43.7,0.9,87.3,5.3,130,14.2c36.5,7.6,72.5,18.3,106.4,33.8c27.4,12.5,54,28,76.3,48.3
				c17.4,15.9,32.7,35.2,40.1,57.7c4.3,13.1,5.5,27,5.6,40.6c0.2,20.3-2.7,40.8-9.3,60c-13.7,40-45.3,70-70.5,102.9
				c-12.4,16.2-23.1,33.4-30.7,52.4c-7.4,18.5-12.4,38-20.7,56.2c-7.7,17-18.5,32.9-35.1,42.2c-15.5,8.7-33.8,11.4-51.4,10.8
				c-35.3-1.3-69.6-15.7-92.9-42.6c-14.5-16.7-24.6-37.3-30-58.6c-0.4-1.6-0.8-3.2-1.1-4.9c-1-4.5-8-2.6-6.9,1.9
				c4,17.3,10.5,34,20,49.1c8.4,13.4,18.9,25.3,31.4,34.9c14.7,11.4,31.9,19,50,23.3c35.3,8.5,78.3,5.6,103.9-23.2
				c13.5-15.2,21.2-34.2,27.8-53.2c6.8-19.4,12.8-39,23.1-56.9c21.2-36.7,53.7-65.3,75.6-101.6c21-34.9,27.9-77.3,22.2-117.4
				c-3.4-24-15.3-45.4-31.1-63.5c-19.2-22-43.8-39.2-69.4-53.1c-32-17.3-66.6-29.8-101.7-39c-41.7-10.9-84.5-17.2-127.5-20
				c-11.4-0.7-22.8-1.2-34.2-1.4C55.9,135.3,55.9,142.4,60.6,142.5L60.6,142.5z"/>
		</g>
	</g>
	<g class="st22">
		<g>
			<path class="st20" d="M62.8,148.4c40.8,1,81.6,5.4,121.6,14c33.9,7.3,67.3,17.5,98.8,32.1c25.7,11.9,50.5,26.7,71.3,46
				c16.1,15,30.2,33.4,36.8,54.4c3.9,12.3,4.9,25.3,5,38.1c0.1,19.2-2.8,38.6-9.2,56.8c-13.1,37.1-42.4,65.2-65.9,95.7
				c-11.8,15.3-21.9,31.6-29.1,49.5c-7,17.4-11.8,35.6-19.6,52.6c-7.2,15.8-17.3,30.6-32.7,39.3c-14.5,8.2-31.6,10.9-48.1,10.4
				c-33-1-65.2-14.2-87.2-39.2c-13.8-15.7-23.2-34.7-28.6-54.6c-0.4-1.5-0.7-3.1-1.2-4.6c-1.3-4.4-8.3-2.5-6.9,1.9
				c1.6,5.2,2.8,10.4,4.6,15.5c3.8,10.7,8.7,21,14.8,30.5c8,12.5,18,23.7,29.9,32.7c13.9,10.5,30.1,17.5,47,21.4
				c33.4,7.7,73.6,4.7,97.6-22.5c12.6-14.3,19.8-32,26.1-49.7c6.4-18.2,12.2-36.6,21.9-53.3c19.9-34.2,50.1-60.9,70.7-94.7
				c19.9-32.7,26.8-72.4,21.8-110.2c-3.1-22.9-13.7-43.3-28.7-60.7c-17.8-20.9-40.8-37.2-64.7-50.4c-29.8-16.4-62-28.3-94.8-37.2
				C175,151.6,135.1,145.5,95,142.7c-10.7-0.7-21.5-1.2-32.2-1.5C58.2,141.1,58.2,148.3,62.8,148.4L62.8,148.4z"/>
		</g>
	</g>
	<g class="st23">
		<g>
			<path class="st20" d="M65,154.2c38,1.2,76,5.5,113.1,13.8c31.6,7,62.7,16.8,91.9,30.8c23.7,11.3,46.6,25.3,65.7,43.5
				c15,14.4,27.9,31.8,33.7,51.7c3.4,11.6,4.2,23.9,4.1,36c-0.2,17.8-2.9,35.6-9,52.4c-12.5,34.8-40.3,61-62.3,89.8
				c-10.9,14.3-20.2,29.3-26.9,46c-6.5,16.1-11.1,33-18.5,48.7c-6.9,14.7-16.4,28.4-30.8,36.5c-13.5,7.6-29.3,10.1-44.6,9.7
				c-30.7-0.8-60.8-12.9-81.5-36c-13-14.6-21.6-32-27-50.4c-0.4-1.4-0.7-2.9-1.3-4.3c-0.7-1.8-2.4-3.1-4.4-2.5
				c-1.7,0.5-3.2,2.6-2.5,4.4c1.8,4.6,2.8,9.5,4.5,14.2c3.6,10,8.3,19.6,14.1,28.5c7.6,11.7,17,22,28.2,30.3
				c13,9.7,28.2,16.1,43.9,19.6c31.1,7.1,68.6,4.1,91.2-20.9c24.3-26.9,27.7-65.3,45.3-95.9c18.6-32.2,46.9-57.3,66.4-88.8
				c18.7-30.5,25.6-67.4,21.3-102.8c-1.3-10.6-4-20.7-8.5-30.4c-4.5-9.9-10.6-19-17.5-27.3c-16.3-19.7-37.6-35.3-59.8-47.8
				c-27.6-15.6-57.5-27-88-35.5c-36.2-10.1-73.6-16.1-111-18.9c-9.9-0.8-19.8-1.3-29.8-1.6C60.4,146.9,60.4,154.1,65,154.2L65,154.2
				z"/>
		</g>
	</g>
	<g class="st3">
		<g>
			<path class="st20" d="M67.2,160.1c35.1,1.4,70.1,5.6,104.4,13.6c29.2,6.8,58,16.1,85,29.3c21.8,10.7,42.8,23.9,60.2,41
				c7.4,7.3,13.8,14.9,19.3,23.6c5,8,8.7,15.8,11.2,24.8c3,11,3.6,22.6,3.4,33.9c-0.3,16.7-3.1,33.5-9,49.2
				c-12,31.9-37.7,56.1-58,82.7c-10.2,13.4-18.9,27.6-25.2,43.2c-6,14.9-10.4,30.4-17.3,44.9c-6.5,13.5-15.3,26.1-28.6,33.5
				c-12.6,7.1-27.4,9.4-41.8,9.1c-28.3-0.7-56.1-11.7-75.3-32.8c-7.3-8.1-13.3-17.3-18-27.2c-1.9-4-3.1-6.8-4.6-10.9
				c-1-2.8-2-5.6-2.8-8.4c-0.5-1.5-0.9-3.2-1.6-4.6c-2.1-4.1-8.3-0.5-6.2,3.6c0.3,0.5-0.4-1.2-0.1-0.3c0.1,0.3,0.2,0.7,0.3,1
				c0.3,0.9,0.6,1.9,0.9,2.8c1,3,2,6.1,3.1,9.1c3.6,9.3,8,18.3,13.6,26.6c7.2,10.8,16.1,20.2,26.6,27.9
				c12.2,8.8,26.3,14.5,40.9,17.7c29.2,6.3,64,3.1,84.9-20.5c22.3-25,25.8-60.4,42.2-88.8c17.3-29.8,43.6-53.1,61.7-82.4
				c17.6-28.3,24.1-62.6,20.5-95.6c-1.1-10-3.5-19.4-7.5-28.6c-4.1-9.3-9.7-17.9-16-25.8c-14.9-18.5-34.4-33.2-54.8-45
				c-25.4-14.8-53.2-25.6-81.4-33.7c-33.4-9.6-68-15.4-102.6-18.3c-9.1-0.8-18.3-1.3-27.4-1.7C62.6,152.7,62.6,159.9,67.2,160.1
				L67.2,160.1z"/>
		</g>
	</g>
	<g class="st24">
		<g>
			<path class="st20" d="M69.4,165.9c32.3,1.5,64.4,5.7,95.8,13.3c26.7,6.5,53,15.4,77.6,27.7c20,10.1,39.2,22.5,54.9,38.5
				c6.8,6.9,12.4,13.8,17.4,22c4.6,7.6,7.8,14.7,10,23.2c2.6,10.3,3.1,21.1,2.8,31.8c-0.5,15.3-3.2,30.6-8.6,44.9
				c-11.2,29.5-35.1,51.9-53.9,76.5c-9.5,12.4-17.5,25.5-23.4,39.9c-5.6,13.7-9.8,28.1-16.3,41.4c-6.1,12.5-14.4,24-26.7,30.9
				c-11.7,6.5-25.3,8.7-38.5,8.5c-26-0.5-51.6-10.4-69.4-29.6c-6.8-7.3-12.3-15.7-16.7-24.7c-0.9-1.9-1.8-3.7-2.6-5.6
				c-0.1-0.2-0.6-1.3-0.4-1c0.1,0.2-0.3-0.8-0.4-1c-0.3-0.8-0.6-1.6-1-2.4c-1-2.5-1.9-5.1-2.7-7.6c-0.5-1.4-0.9-3-1.6-4.2
				c-2.5-3.9-8.7-0.3-6.2,3.6c0.4,0.6-0.2,0.2-0.1-0.3c0,0.2,0.3,0.7,0.3,0.9c0.3,0.9,0.6,1.8,0.9,2.6c0.9,2.8,2,5.6,3,8.3
				c3.4,8.5,7.5,16.6,12.7,24.2c6.8,9.9,15.1,18.7,24.9,25.6c11.4,8.1,24.6,13.3,38.2,16.1c27.2,5.6,59.3,2.4,78.8-19.4
				c20.7-23.1,24.2-55.7,39.5-81.9c16.1-27.5,40.3-49.1,57.2-76.1c16.4-26.2,22.7-57.8,19.7-88.5c-0.9-9.3-2.9-18.2-6.6-26.8
				c-3.7-8.8-8.7-16.8-14.6-24.3C299.8,235,282,221.2,263.2,210c-23.2-13.9-48.6-24.1-74.4-31.8c-30.6-9.1-62.2-14.8-94-17.7
				c-8.5-0.8-17-1.4-25.5-1.8C64.8,158.5,64.8,165.7,69.4,165.9L69.4,165.9z"/>
		</g>
	</g>
	<g class="st25">
		<g>
			<path class="st20" d="M71.6,171.8c29.4,1.7,58.7,5.9,87.2,13.1c24.4,6.2,48.3,14.7,70.6,26.4c18.3,9.6,35.4,21.2,49.6,36.2
				c11.3,12,20.3,26,24.1,42.1c0.4,1.9,0.8,3.8,1.1,5.8c0,0.2,0.1,0.4,0.1,0.6c-0.1-0.7,0-0.1,0,0c0.1,0.6,0.1,1.2,0.2,1.8
				c0.1,1.3,0.3,2.7,0.4,4.1c0.4,5.8,0.5,11.7,0.2,17.5c-0.6,14.1-3.3,28.2-8.6,41.3c-5.3,13.2-13.7,25.1-22.5,36.2
				c-9,11.3-18.6,22.1-27.3,33.6c-8.7,11.3-15.9,23.3-21.4,36.5c-5.2,12.5-9.1,25.6-15.1,37.7c-5.7,11.4-13.4,21.9-24.7,28.1
				c-10.6,5.9-23,7.9-35.1,7.7c-23.8-0.3-47.4-9.2-63.8-26.7c-6.2-6.6-11.2-14.1-15.4-22.3c-0.8-1.7-1.7-3.3-2.4-5
				c-0.4-0.8-0.7-1.6-1-2.4c-0.1-0.2-0.1-0.3-0.2-0.5c0,0.1,0.3,0.7,0,0.1c-0.2-0.4-0.3-0.8-0.5-1.2c-0.9-2.3-1.8-4.5-2.6-6.8
				c-0.6-1.6-1.1-3.2-2.2-4.5c-1.2-1.5-3.8-1.3-5.1,0c-1.5,1.5-1.2,3.6,0,5.1c-1.3-1.7-0.2-0.4-0.3-0.2c0,0.1,0.1,0.3,0.1,0.3
				c0.3,0.5-0.4-1-0.1-0.3c0.3,0.8,0.6,1.6,0.9,2.5c1,2.6,1.9,5.1,3,7.6c3.3,7.7,7.2,15.2,12,22.1c6.5,9.1,14.3,17.1,23.6,23.4
				c10.5,7.1,22.6,11.7,35,14.1c25,4.8,54.3,1.5,72.3-18.4c19-21.1,22.6-50.9,36.7-75c14.8-25.2,37-45.1,52.6-69.7
				c8.2-12.9,13.8-27,16.7-42c2.5-12.9,3.3-26.2,2.3-39.2c-0.7-8.6-2.3-16.9-5.5-24.9c-3.2-8.1-7.5-15.6-12.8-22.6
				c-12.2-16.3-28.2-29.4-45.5-40.1c-21.1-13.1-44.2-22.8-67.8-30.2c-27.9-8.7-56.8-14.2-85.9-17.2c-7.6-0.8-15.2-1.4-22.9-1.8
				C67,164.3,67,171.5,71.6,171.8L71.6,171.8z"/>
		</g>
	</g>
	<g class="st26">
		<g>
			<path class="st20" d="M73.8,177.6c26.5,1.9,52.9,6,78.5,12.9c21.9,5.9,43.4,13.9,63.3,24.8c16.4,9,31.7,19.7,44.2,33.6
				c5.3,5.9,9.7,11.8,13.6,19c1.9,3.4,3.2,6.4,4.4,9.5c1.2,3.4,2.3,6.8,3,10.3c0.2,0.8,0.3,1.7,0.5,2.5c0.1,0.4,0.1,0.8,0.2,1.3
				c0,0.2,0.1,0.4,0.1,0.6c-0.1-0.5,0-0.2,0,0.2c0.2,2.2,0.4,4.4,0.6,6.6c0.3,5.4,0.3,10.8,0,16.2c-0.8,12.9-3.4,25.7-8.3,37.6
				c-10.1,24.2-29.9,42.8-45.6,63.3c-7.9,10.3-14.5,21.2-19.5,33.1c-4.8,11.4-8.5,23.3-14.1,34.3c-5.2,10.2-12.2,19.5-22.4,25.2
				c-9.6,5.4-20.9,7.3-31.8,7.3c-21.5-0.1-42.9-7.7-58-23.2c-5.8-6-10.4-12.6-14.4-20.1c-1.5-2.8-2.9-5.7-4.2-8.6
				c-0.1-0.3-0.3-0.6-0.4-0.9c0-0.1-0.5-1.1-0.2-0.5c0.2,0.6-0.2-0.4-0.2-0.5c-0.1-0.3-0.2-0.6-0.4-0.9c-0.4-0.9-0.8-1.8-1.1-2.8
				c-0.6-1.4-1.1-3-2.2-4.1c-3.3-3.2-8.4,1.9-5.1,5.1c0.3,0.3-0.5-1-0.3-0.3c0.1,0.2,0.3,0.5,0.4,0.7c0.1,0.3,0.3,0.6,0.4,0.9
				c0.3,0.7-0.3-0.7-0.1-0.2c0.1,0.2,0.2,0.5,0.3,0.7c1,2.5,2.1,5,3.2,7.5c3.1,6.8,6.7,13.4,11.1,19.4c6,8.2,13.2,15.3,21.6,20.9
				c9.7,6.4,21,10.5,32.4,12.5c22.8,4.1,49.2,0.8,65.6-17c17.7-19.2,21.2-46.5,34.3-68.5c13.5-22.8,33.6-40.9,47.9-63.2
				c7.6-11.8,12.9-24.6,15.7-38.3c2.4-11.8,3.3-24,2.5-36c-0.5-7.9-1.8-15.7-4.6-23.1c-2.8-7.5-6.6-14.6-11.3-21
				c-10.7-15-25-27.2-40.5-37.2c-18.8-12.2-39.6-21.4-60.9-28.4c-25.1-8.3-51.2-13.6-77.5-16.6c-6.9-0.8-13.9-1.4-20.9-1.9
				c-1.9-0.1-3.6,1.8-3.6,3.6C70.2,176.1,71.9,177.5,73.8,177.6L73.8,177.6z"/>
		</g>
	</g>
	<g class="st8">
		<g>
			<path class="st20" d="M76,183.5c23.7,2,47.2,6.1,70,12.8c19.5,5.7,38.6,13.2,56.2,23.4c14.5,8.4,27.9,18.4,38.8,31.2
				c2.4,2.8,4.1,5.1,6.3,8.3c1.9,2.9,3.7,5.9,5.3,9c2.8,5.5,4.9,11.6,6.1,18.3c0.1,0.4,0.1,0.7,0.2,1.1c0,0.2,0.2,1.4,0.1,0.7
				c0.1,0.8,0.2,1.6,0.3,2.5c0.2,2.1,0.3,4.2,0.4,6.3c0.2,4.9,0.1,9.8-0.3,14.8c-0.9,11.4-3.4,23-8.1,33.5
				c-9.6,21.6-27.3,38.3-41.4,56.9c-7,9.2-13,18.9-17.6,29.5c-4.4,10.3-7.9,21-13.1,30.9c-4.8,9.2-11.2,17.5-20.4,22.6
				c-8.6,4.8-18.6,6.6-28.4,6.7c-19.4,0.2-38.8-6.4-52.6-20.3c-5.3-5.3-9.4-11-13.1-17.6c-2.4-4.2-4.3-8.7-6.4-13
				c-0.7-1.4-1.4-2.6-2.6-3.5c-1.5-1.2-4-0.2-4.9,1.3c-1.1,1.8-0.3,3.7,1.3,4.9c-1-0.8-0.8-0.6-0.5-0.4c0.2,0.2-0.5-0.9-0.4-0.5
				c0.1,0.2,0.3,0.5,0.4,0.7c0.3,0.6,0.6,1.3,0.9,1.9c0.9,2,1.8,4.1,2.8,6.1c3,6.2,6.4,12,10.6,17.5c5.6,7.2,12.3,13.6,20.1,18.4
				c9,5.6,19.2,9,29.6,10.6c20.9,3.3,44.6-0.2,59.5-16.6c15.6-17.3,19.2-41.5,31-61.1c12.3-20.5,30.3-36.9,43.4-56.9
				c6.9-10.5,11.8-22,14.5-34.2c2.4-10.7,3.3-21.8,2.9-32.7c-0.3-7.3-1.3-14.5-3.6-21.4c-2.3-6.9-5.6-13.4-9.7-19.4
				c-9.3-13.9-22-25.2-35.7-34.6c-16.6-11.3-35-19.9-54-26.6c-22.4-7.9-45.7-13-69.3-16.1c-6.2-0.8-12.3-1.5-18.5-2
				c-1.9-0.2-3.6,1.8-3.6,3.6C72.4,182,74,183.3,76,183.5L76,183.5z"/>
		</g>
	</g>
	<g class="st27">
		<g>
			<path class="st20" d="M78.2,189.3c20.8,2.2,41.5,6.3,61.4,12.6c17,5.4,33.6,12.5,48.8,21.9c12.6,7.8,24.3,17.1,33.5,28.8
				c0.7,0.9,1.7,2.3,2.6,3.5c0.9,1.4,1.9,2.8,2.7,4.2c1.6,2.6,3.1,5.4,4.4,8.2c0.2,0.4,0.3,0.7,0.5,1.1c0.3,0.6-0.1-0.2,0.2,0.4
				c0.3,0.7,0.6,1.5,0.9,2.3c0.5,1.4,1,2.8,1.4,4.2c0.4,1.4,0.8,2.8,1.1,4.3c0.2,0.7,0.3,1.4,0.4,2.1c0.1,0.3,0.1,0.7,0.2,1
				c0,0.2,0.1,0.3,0.1,0.5c0.1,0.7,0-0.2,0,0.2c1,7.8,0.8,15.9-0.1,23.7c-1,10.1-3.5,20.2-7.8,29.4c-8.9,19-24.6,33.8-37.2,50.3
				c-6.2,8.1-11.5,16.7-15.6,26c-4,9.1-7.3,18.6-12,27.3c-4.3,8.1-10,15.4-18.1,19.9c-7.6,4.3-16.5,6.1-25.1,6.3
				c-17.2,0.4-34.5-5-47-17c-4.9-4.7-8.5-9.4-11.9-15.2c-2.2-3.7-4-7.6-6.1-11.3c-0.7-1.2-1.4-2.5-2.7-3.2c-4-2.3-7.6,3.9-3.6,6.2
				c0.4,0.2-0.9-0.8-0.4-0.2c0.1,0.1-0.5-0.8-0.1-0.1c0.3,0.6,0.6,1.1,1,1.7c0.9,1.8,1.8,3.5,2.7,5.3c2.9,5.5,6.2,10.8,10.2,15.6
				c11.2,13.8,27.1,22.2,44.6,24.6c18.8,2.6,39.8-0.7,53.2-15.3c14.1-15.3,17.7-36.6,28.2-54c11-18.4,27.1-33,39-50.9
				c6.2-9.3,10.7-19.3,13.4-30.1c2.3-9.6,3.4-19.5,3.2-29.3c-0.1-6.7-0.7-13.5-2.6-19.9c-1.8-6.2-4.6-12.2-8-17.8
				c-7.8-12.7-18.8-23.2-30.8-32c-14.4-10.5-30.6-18.5-47.2-24.9c-19.5-7.4-39.9-12.4-60.4-15.6c-5.6-0.8-11.2-1.6-16.9-2.2
				c-1.9-0.2-3.6,1.8-3.6,3.6C74.6,187.9,76.3,189.1,78.2,189.3L78.2,189.3z"/>
		</g>
	</g>
	<g class="st28">
		<g>
			<path class="st20" d="M80.4,195.2c33.1,4.4,66.7,14.2,94.5,33c5.6,3.7,10.8,7.8,15.7,12.4c4.4,4.1,8.6,8.8,11.9,13.4
				c3.1,4.4,6.2,9.8,7.9,14.2c1,2.5,1.8,5.1,2.4,7.7c0.3,1.2,0.6,2.5,0.8,3.7c0.1,0.3,0.1,0.7,0.2,1c0.2,1.1-0.1-0.7,0.1,0.4
				c0.1,0.7,0.2,1.4,0.2,2.1c1.3,15.9-1.2,33.3-8.5,47.6c-8.3,16.3-21.9,29.2-32.9,43.7c-5.4,7.1-10,14.5-13.7,22.6
				c-3.6,7.8-6.6,16-10.8,23.5c-3.9,7-9.1,13.4-16.2,17.3c-6.7,3.7-14.4,5.4-22,5.7c-14.9,0.5-30.1-3.8-41.2-14
				c-4.4-4.1-7.6-8.1-10.7-13c-2-3.1-3.6-6.4-5.6-9.4c-1-1.4-1.9-2.4-3.5-3.1c-1.8-0.7-3.9,0.8-4.4,2.5c-0.6,2.1,0.7,3.7,2.5,4.4
				c-1.1-0.5-0.9-0.4-0.6-0.2c-0.8-0.5-0.8-0.6-0.5-0.3c0.3,0.3,0.5,0.9-0.1-0.1c0.3,0.5,0.7,1,1,1.5c0.9,1.6,1.8,3.2,2.8,4.8
				c2.8,4.8,6,9.4,9.6,13.5c10.5,11.9,24.9,18.5,40.6,20.2c16.4,1.8,34.5-2,46.1-14.5c12.4-13.4,16-32,25.4-47.2
				c9.9-16.1,23.9-29,34.5-44.6c10.5-15.5,15.2-33.6,15.5-52.3c0.1-6.1-0.3-12.2-1.8-18.1c-1.4-5.6-3.6-11-6.4-16.1
				c-6.3-11.3-15.4-20.9-25.4-28.8c-26.6-21-59.9-32.6-92.9-38.5c-4.8-0.9-9.7-1.6-14.5-2.2c-1.9-0.3-3.6,1.8-3.6,3.6
				C76.8,193.8,78.5,194.9,80.4,195.2L80.4,195.2z"/>
		</g>
	</g>
	<g class="st29">
		<g>
			<path class="st20" d="M81.6,200.9c28.1,4.8,56.3,14.1,79.4,31.4c8.7,6.5,16.6,14.4,22.3,23.4c2.7,4.3,4.6,8.3,6.1,12.8
				c0.7,2.3,1.3,4.6,1.8,7c0.2,1.3,0.2,1.3,0.4,2.6c0.1,1.2,0.2,2.4,0.2,3.6c0.4,14-2,28.7-8.8,41.1c-7.5,13.8-19,24.8-28.5,37.2
				c-4.7,6.1-8.7,12.5-11.9,19.4c-3.2,6.7-5.9,13.6-9.7,20c-3.5,5.9-7.9,11.2-13.9,14.6c-5.6,3.2-12.1,4.8-18.6,5.2
				c-12.7,0.8-25.9-2.3-35.6-10.6c-2-1.7-3.9-3.6-5.7-5.6c-1.7-2-2.5-3-3.9-5c-2-2.8-3.7-5.9-5.9-8.5c-0.8-0.9-1.8-1.8-3-2.1
				c-4.5-1.2-6.4,5.7-1.9,6.9c0.3,0.1-1-0.5-0.4-0.1c-1.1-0.7-0.5-0.4-0.2-0.1c0.1,0.2,0.3,0.4,0.5,0.5c0.4,0.3-0.2-0.3-0.3-0.3
				c0.1,0.2,0.3,0.3,0.4,0.5c0.9,1.3,1.8,2.7,2.7,4c2.7,4,5.5,7.9,8.9,11.3c9.6,9.9,22.2,15.1,35.8,16.2
				c14.2,1.1,29.7-2.5,39.8-13.1c10.9-11.4,14.6-27.3,22.7-40.4c8.5-13.5,20.2-24.6,29.4-37.6c4.9-6.9,8.7-14.3,11.2-22.3
				c2.3-7.4,3.5-15.1,3.9-22.8c0.6-10.9-0.8-21.2-5.5-31.1c-4.7-10.1-12.1-18.9-20.4-26.3c-21.5-19-49.4-30.2-77.1-36.4
				c-4-0.9-8.1-1.7-12.2-2.4c-1.9-0.3-3.9,0.5-4.4,2.5C78.7,198.2,79.7,200.6,81.6,200.9L81.6,200.9z"/>
		</g>
	</g>
	<g class="st13">
		<g>
			<path class="st20" d="M83.8,206.8c22.5,5.1,45.2,14,62.8,29.4c7,6.1,13,13,17.2,21.2c3.7,7.2,5.6,15,5.2,23.1
				c-0.5,11.8-2.8,23.8-8.8,34.1c-6.5,11.1-15.8,20.2-23.7,30.3c-4,5.1-7.5,10.5-10.5,16.3c-2.8,5.5-5.3,11.2-8.5,16.5
				c-3,4.8-6.6,9.2-11.5,12.2c-4.7,2.8-10.1,4.4-15.5,5c-10.7,1.1-21.7-1-30.4-7.4c-3.1-2.3-6.1-5.4-8.6-8.4
				c-1.7-2.1-3.2-4.5-5.2-6.3c-0.8-0.8-1.9-1.6-3.1-1.8c-1.9-0.3-3.9,0.5-4.4,2.5c-0.5,1.7,0.6,4.1,2.5,4.4c0.7,0.1-0.8-0.5,0.1,0
				c-1.1-0.7,0.1,0.2,0.5,0.6c0.9,1,1.7,2.1,2.6,3.2c2.4,3,4.9,6,7.7,8.6c8.6,7.8,19.6,11.8,31.2,12.2c12.2,0.4,25.1-3.1,33.7-12.1
				c9.1-9.4,12.7-22.3,19.7-33.1c7.2-11.3,17.1-20.7,25-31.5c4.2-5.7,7.6-11.9,10-18.6c2.1-6.1,3.3-12.4,4-18.8
				c1-9.4,0.7-18.6-2.7-27.5c-3.4-9.1-9-17.2-15.7-24.1c-16.5-17.1-39.2-27.8-61.9-34.2c-3.2-0.9-6.5-1.7-9.8-2.5
				C81.2,198.8,79.3,205.8,83.8,206.8L83.8,206.8z"/>
		</g>
	</g>
	<g class="st30">
		<g>
			<path class="st20" d="M86,212.6c17.4,5.5,34.3,14.4,46.7,28c4.9,5.4,9.2,11.9,11.6,18.6c2.5,6.9,2.9,13.3,2,20.7
				c-1.1,9.6-3.7,18.9-8.9,27.1c-5.6,8.7-13.1,16-19.5,24.1c-3.2,4.1-6,8.3-8.5,12.8c-2.4,4.3-4.5,8.6-7.3,12.7
				c-2.6,3.8-5.7,7.3-9.6,9.7c-3.8,2.3-8.1,3.6-12.5,4.3c-8.3,1.2-17.2,0-24.4-4.5c-2.7-1.7-4.9-3.6-7.3-6c-1.7-1.7-3.4-3.6-5.4-4.9
				c-1-0.6-2.2-1-3.4-1.1c-4.6-0.2-4.6,7,0,7.2c0.5,0-0.9-0.2-0.4,0c0.4,0.1-0.7-0.5-0.2-0.1c0.1,0.1,0.3,0.2,0.5,0.3
				c0.1,0,0.2,0.1,0.2,0.2c0.6,0.4-0.5-0.4-0.2-0.1c0.9,0.8,1.7,1.6,2.6,2.4c2.4,2.4,4.9,4.7,7.7,6.7c7.5,5.5,16.9,7.8,26.2,7.4
				c10-0.4,20.1-3.8,27.2-11.2c7.3-7.6,10.9-17.6,16.7-26.2c6.1-9,13.9-16.6,20.4-25.2c6.6-8.8,10.7-18.6,12.5-29.5
				c1.3-8.1,1.9-16.1-0.1-24.2c-1.9-7.7-5.7-14.9-10.5-21.1c-11.7-15.3-28.7-25.6-46.5-32.4c-2.5-1-5.1-1.9-7.7-2.7
				C83.5,204.3,81.7,211.2,86,212.6L86,212.6z"/>
		</g>
	</g>
	<g class="st31">
		<g>
			<path class="st20" d="M87.4,218.1c12.1,6.1,23.4,14.7,30.6,26.4c3.1,5.1,5.3,10.5,6.3,16.4c1,5.6,0.3,11.3-0.8,16.9
				c-1.6,7.5-4.1,14.5-8.6,20.8c-4.4,6.3-10,11.8-14.9,17.8c-2.5,3.1-4.8,6.2-6.9,9.6c-2,3.2-3.9,6.4-6.2,9.4
				c-4.2,5.5-9.7,9.2-16.5,10.8c-6.8,1.6-14.3,1.3-20.6-1.9c-2.4-1.2-4.6-2.8-6.9-4.3c-1.9-1.2-4-2.4-6.3-2.3
				c-4.6,0.3-4.6,7.4,0,7.2c0.2,0,0.4,0,0.6,0c-0.4,0-0.6,0.1-0.3,0c0.1,0,0.4,0.1,0.5,0.2c0.5,0.1-0.8-0.4-0.1,0
				c0.9,0.5,1.7,1,2.5,1.5c2.2,1.4,4.4,2.9,6.7,4.1c6.6,3.3,14,4.2,21.3,3.2c7.7-1,15.2-4.1,20.8-9.6c5.8-5.7,9.3-13.1,14-19.6
				c4.8-6.6,10.7-12.3,15.7-18.7c5.2-6.7,9-13.9,11.1-22.2c1.7-6.4,2.9-13,2.4-19.6c-0.5-6.6-2.4-13-5.3-18.9
				c-7.4-14.8-21-25.9-35.5-33.3C86.9,209.9,83.3,216,87.4,218.1L87.4,218.1z"/>
		</g>
	</g>
	<g class="st32">
		<g>
			<path class="st20" d="M88.9,223.4c6.5,6.9,11.5,15.2,13.7,24.5c1.1,4.5,1.4,9.1,1,13.7c-0.4,4.6-1.8,9.1-3.3,13.5
				c-1.7,4.9-3.9,9.4-7,13.5c-3.2,4.3-6.9,8.1-10.5,12c-6.7,7.4-11.9,16.9-21.7,20.6c-4.9,1.9-10.2,2.8-15.4,1.9
				c-4.4-0.8-8.5-2.6-12.9-1.9c-1.9,0.3-3,2.7-2.5,4.4c0.6,2.1,2.5,2.8,4.4,2.5c-0.6,0.1,0.2,0,0.4,0c0.2,0,1.1,0.1,1,0.1
				c0.4,0.1,1.7,0.4,2.5,0.6c2.1,0.5,4.2,1.1,6.4,1.4c5.4,0.8,11,0.3,16.2-1.3c5.4-1.7,10.3-4.5,14.3-8.5c3.9-3.8,7-8.4,10.6-12.5
				c3.7-4.3,7.8-8.4,11.4-12.9c3.8-4.7,6.7-9.6,8.9-15.2c3.8-9.8,5.7-19.8,4-30.3c-1.9-11.8-8.1-22.6-16.3-31.2
				C90.8,215,85.7,220.1,88.9,223.4L88.9,223.4z"/>
		</g>
	</g>
	<g>
		<g>
			<path class="st20" d="M90,226.7c0.3,28.3-14.7,55.1-39.1,69.4c-6.6,3.9-13.6,6.7-21.1,8.6c-4.5,1.1-2.6,8,1.9,6.9
				c29.3-7.3,53.1-30,61.8-58.9c2.5-8.4,3.7-17.2,3.6-25.9C97.1,222.1,90,222.1,90,226.7L90,226.7z"/>
		</g>
	</g>
</g>
</svg>
