<svg xmlns="http://www.w3.org/2000/svg" viewBox="0 0 328.03 383.01">
  <defs>
    <style>
      .cls-1 {
        opacity: 0.39;
      }

      .cls-2 {
        fill: #ff0387;
      }
    </style>
  </defs>
  <g id="Layer_2" data-name="Layer 2">
    <g id="Layer_11" data-name="Layer 11">
      <g class="cls-1">
        <path class="cls-2" d="M31.29,26.42C60.57,8.46,95.2,1.56,129.19.87c16.75-.35,33.73.8,49.9,5.43A94.81,94.81,0,0,1,219.4,29.2c20.8,20.2,31.61,48.56,37.73,76.36,3.15,14.25,4.63,28.78,7.35,43.11,2.6,13.66,6.42,27.65,14.69,39.07A50.19,50.19,0,0,0,295,202.22c5.73,3.22,12,4.43,18.15,6.46,5.22,1.72,9.31,4.89,11.65,9.94a30.4,30.4,0,0,1,2.33,14c-.48,12.16-5,24.12-10.13,35a216.76,216.76,0,0,1-21.46,35.88A182.18,182.18,0,0,1,269.1,333.1a168.92,168.92,0,0,1-32.32,22.25c-22.11,11.78-46.46,18.94-71.13,22.9A346.81,346.81,0,0,1,98.35,382,425.58,425.58,0,0,1,50,377.47c-2.35-.36-4.71-.73-7.06-1.13-.47-.08-.68.65-.2.73q20.84,3.48,41.93,5a373.46,373.46,0,0,0,65.44-1c24.55-2.64,48.94-8.1,71.72-17.77,24.1-10.23,45.89-25.31,63.09-45.12a226.43,226.43,0,0,0,24.19-33.9c6.73-11.49,12.72-23.69,16.26-36.58,2.54-9.22,4.3-20.1.24-29.16a18.55,18.55,0,0,0-10.06-9.79c-6.07-2.49-12.61-3.33-18.53-6.32-28.47-14.38-31.52-51.09-35.79-78.87-4.38-28.46-12.46-57.7-29.59-81.29A96.3,96.3,0,0,0,200,13.93C185.54,6.09,169.28,2.32,153,.85a236.74,236.74,0,0,0-51,1.23A192.92,192.92,0,0,0,52.52,14.79a153.36,153.36,0,0,0-21.61,11c-.41.25,0,.9.38.65Z"/>
        <path class="cls-2" d="M211.62,42.15c19.86,19.48,30.31,46.64,36.32,73.28q.72,3.21,1.35,6.45c2.23,11.57,3.66,23.28,5.91,34.86,2.55,13.11,6.24,26.52,14.09,37.52a53.85,53.85,0,0,0,6.87,7.9,44.68,44.68,0,0,0,8.17,6.12c5.41,3.15,11.32,4.41,17.12,6.45a17.88,17.88,0,0,1,11,9.64,29.6,29.6,0,0,1,2.15,13.46,61.87,61.87,0,0,1-1.93,12.57,115.88,115.88,0,0,1-7.93,21,207.74,207.74,0,0,1-20.83,34.25q-2.7,3.67-5.57,7.22a167.2,167.2,0,0,1-20,21,163.68,163.68,0,0,1-31.09,21.26q-4.24,2.23-8.59,4.26c-18.9,8.76-39.2,14.31-59.74,17.52a329,329,0,0,1-64.57,3.28,400.2,400.2,0,0,1-40.62-3.77c-1.91-.28-3.81-.56-5.7-.86l-4.4-.72c-.79-.14-1.59-.25-2.36-.37-.45-.07-.63.62-.18.7q19.91,3.47,40.1,5a354.2,354.2,0,0,0,62.64-.6c23.52-2.41,46.89-7.55,68.75-16.73a171,171,0,0,0,48.56-30.44,159.39,159.39,0,0,0,12.87-13c.85-1,1.7-1.95,2.53-2.93a204.33,204.33,0,0,0,13.58-17.9q3.94-5.85,7.47-12a162.67,162.67,0,0,0,12.13-25.37c1.23-3.36,2.31-6.77,3.21-10.22,2.33-9,3.9-19.48,0-28.29a18.31,18.31,0,0,0-9.63-9.59c-5.74-2.46-11.95-3.3-17.56-6.2-27-13.9-30-48.81-34.26-75.31-1.24-7.77-2.77-15.6-4.69-23.35-4.81-19.3-12.12-38.1-23.8-54.16a96.84,96.84,0,0,0-22.07-22,85.37,85.37,0,0,0-8.6-5.37c-14-7.6-29.66-11.3-45.38-12.78a229,229,0,0,0-49.37,1,199.31,199.31,0,0,0-35.6,7.58q-6.22,1.95-12.29,4.4c-2.05.82-4.07,1.69-6.08,2.6-.77.35-1.52.75-2.23,1.11h0q-6.06,3-11.82,6.66a.36.36,0,0,0,.39.61h0c28.45-16.94,62-23.42,94.8-23.83a192,192,0,0,1,30.76,1.87,129.33,129.33,0,0,1,17.39,3.81A92.2,92.2,0,0,1,211.62,42.15Z"/>
        <path class="cls-2" d="M203.83,55.11c18.92,18.75,29,44.7,34.91,70.19q.72,3.08,1.33,6.17c2.21,11.07,3.65,22.27,5.86,33.35,2.49,12.54,6,25.38,13.49,36a52.4,52.4,0,0,0,6.49,7.61,44.61,44.61,0,0,0,7.7,5.95c5.09,3.07,10.65,4.38,16.1,6.42A17.19,17.19,0,0,1,300,230.13a28.64,28.64,0,0,1,2,12.9,59.43,59.43,0,0,1-1.89,12,109.33,109.33,0,0,1-7.71,20.06,197.73,197.73,0,0,1-20.19,32.62q-2.61,3.48-5.38,6.86a160.81,160.81,0,0,1-19.25,20,157.56,157.56,0,0,1-29.85,20.26q-4.06,2.15-8.24,4.07c-18.14,8.35-37.61,13.61-57.29,16.6a311.34,311.34,0,0,1-61.85,2.82,380.21,380.21,0,0,1-38.85-3.88c-1.82-.28-3.64-.56-5.45-.87q-2.1-.34-4.2-.72c-.77-.14-1.53-.22-2.25-.32-.42-.05-.59.6-.16.68q19,3.43,38.27,5A336.9,336.9,0,0,0,137.5,378c22.48-2.19,44.82-7.06,65.77-15.69a166.52,166.52,0,0,0,47.22-29.26,152.71,152.71,0,0,0,12.56-12.5c.84-.93,1.66-1.87,2.48-2.81a185.39,185.39,0,0,0,13.27-17.25q3.85-5.67,7.22-11.61a150.18,150.18,0,0,0,11.46-24.68c1.14-3.27,2.13-6.57,2.95-9.93,2.12-8.7,3.5-18.86-.3-27.4a18.07,18.07,0,0,0-9.2-9.41c-5.41-2.42-11.28-3.26-16.58-6.06-25.47-13.43-28.55-46.54-32.73-71.75-1.23-7.39-2.72-14.84-4.59-22.21-4.66-18.35-11.65-36.23-22.8-51.52a94.2,94.2,0,0,0-21.36-21.24,82.64,82.64,0,0,0-8.31-5.2c-13.48-7.36-28.63-11-43.8-12.48a222.44,222.44,0,0,0-47.7.74,194.79,194.79,0,0,0-34.42,7.11q-6,1.84-11.9,4.14-3,1.17-5.89,2.45c-.75.33-1.45.75-2.09,1.08h0c-3.66,1.89-7.21,4-10.67,6.23-.34.22,0,.79.39.57h0c27.62-15.93,60-22,91.7-22.1a184,184,0,0,1,29.66,2.08,125,125,0,0,1,16.75,3.85A89.39,89.39,0,0,1,203.83,55.11Z"/>
        <path class="cls-2" d="M196.05,68.07c17.93,18.07,27.71,42.77,33.5,67.1q.69,2.94,1.3,5.89c2.18,10.56,3.64,21.25,5.8,31.84,2.45,12,5.87,24.24,12.89,34.41a51.83,51.83,0,0,0,6.12,7.33,43.4,43.4,0,0,0,7.23,5.77c4.78,3,10,4.37,15.08,6.4a16.62,16.62,0,0,1,9.58,9.07,27.84,27.84,0,0,1,1.79,12.34,57.82,57.82,0,0,1-1.86,11.5A102.81,102.81,0,0,1,280,278.85a187.87,187.87,0,0,1-19.54,31q-2.54,3.32-5.2,6.52a156.61,156.61,0,0,1-18.52,19,153.05,153.05,0,0,1-28.61,19.26q-3.9,2-7.9,3.86c-17.37,7.95-36,12.91-54.82,15.69a294.57,294.57,0,0,1-59.13,2.36,362.68,362.68,0,0,1-37.09-4q-2.61-.42-5.2-.87c-1.34-.23-2.67-.47-4-.72-.73-.14-1.45-.21-2.13-.28-.39,0-.55.57-.14.65q18.07,3.4,36.43,5a318.9,318.9,0,0,0,57.06.14c21.44-2,42.75-6.54,62.78-14.66a161.86,161.86,0,0,0,45.89-28.06,155.92,155.92,0,0,0,12.25-12c.81-.89,1.62-1.79,2.42-2.7a172.43,172.43,0,0,0,13-16.6c2.49-3.66,4.81-7.43,7-11.27a137.62,137.62,0,0,0,10.78-24c1-3.16,1.95-6.37,2.7-9.62,1.91-8.45,3.09-18.25-.57-26.53a18,18,0,0,0-8.78-9.22c-5.07-2.38-10.61-3.23-15.6-5.93-24-12.95-27.07-44.26-31.21-68.19-1.2-7-2.66-14.07-4.47-21.06-4.51-17.4-11.2-34.37-21.81-48.88a91.16,91.16,0,0,0-20.65-20.47,82.71,82.71,0,0,0-8-5c-13-7.12-27.6-10.67-42.24-12.19a214.47,214.47,0,0,0-46,.5A192.3,192.3,0,0,0,55.36,47.2q-5.82,1.74-11.51,3.89c-1.92.73-3.81,1.5-5.7,2.3a19.06,19.06,0,0,0-1.95,1.06h0a110.45,110.45,0,0,0-9.53,5.79c-.3.21,0,.74.41.53h0c26.79-14.91,58.05-20.56,88.6-20.37a174.27,174.27,0,0,1,28.56,2.3,120.38,120.38,0,0,1,16.09,3.87A87.27,87.27,0,0,1,196.05,68.07Z"/>
        <path class="cls-2" d="M188.27,81c17,17.36,26.41,40.84,32.08,64,.46,1.87.88,3.74,1.28,5.61,2.15,10.06,3.63,20.24,5.75,30.32,2.39,11.42,5.68,23.11,12.29,32.86a51.22,51.22,0,0,0,5.74,7,42.34,42.34,0,0,0,6.77,5.59c4.46,2.93,9.32,4.35,14.05,6.38a16,16,0,0,1,8.89,8.79,26.89,26.89,0,0,1,1.61,11.78,55.53,55.53,0,0,1-1.83,11,97.26,97.26,0,0,1-7.24,18.2,178.54,178.54,0,0,1-18.91,29.34q-2.44,3.13-5,6.17a151.71,151.71,0,0,1-17.78,18,147.93,147.93,0,0,1-27.38,18.27c-2.49,1.28-5,2.51-7.55,3.66a192.15,192.15,0,0,1-52.37,14.77,277,277,0,0,1-56.4,1.9,339.91,339.91,0,0,1-35.33-4.1q-2.48-.42-5-.87c-1.27-.24-2.54-.47-3.81-.73a16.91,16.91,0,0,0-2-.23c-.37,0-.51.55-.11.63,11.42,2.25,23,3.95,34.59,5.06a300.73,300.73,0,0,0,54.26.5,210.34,210.34,0,0,0,59.8-13.61,156.58,156.58,0,0,0,44.55-26.88,149.14,149.14,0,0,0,11.94-11.52q1.2-1.28,2.37-2.58a156.41,156.41,0,0,0,12.66-16c2.43-3.54,4.66-7.18,6.72-10.91a126.08,126.08,0,0,0,10.1-23.3c1-3.07,1.79-6.18,2.45-9.32,1.71-8.2,2.7-17.63-.83-25.65a17.84,17.84,0,0,0-8.35-9c-4.74-2.34-9.95-3.2-14.63-5.81-22.47-12.47-25.59-42-29.68-64.63-1.19-6.63-2.61-13.3-4.36-19.91-4.37-16.45-10.75-32.51-20.83-46.25a88.23,88.23,0,0,0-19.93-19.69A76.85,76.85,0,0,0,169.15,65c-12.53-6.88-26.57-10.37-40.66-11.9a208,208,0,0,0-44.34.25,190,190,0,0,0-32.07,6.17Q46.46,61.18,41,63.2c-1.85.68-3.68,1.4-5.51,2.14a13.66,13.66,0,0,0-1.81,1h0a94.91,94.91,0,0,0-8.38,5.35c-.27.19.06.69.41.49h0c26-13.89,56.1-19.13,85.5-18.65a167.53,167.53,0,0,1,27.46,2.52A115.73,115.73,0,0,1,154.08,60,84.56,84.56,0,0,1,188.27,81Z"/>
        <path class="cls-2" d="M180.48,94c16,16.64,25.11,38.91,30.68,60.93q.66,2.66,1.26,5.32c2.11,9.55,3.61,19.22,5.68,28.81,2.35,10.86,5.5,22,11.69,31.3a49.67,49.67,0,0,0,5.38,6.77,41.41,41.41,0,0,0,6.29,5.42c4.15,2.86,8.65,4.32,13,6.36a15.36,15.36,0,0,1,8.2,8.49,26.16,26.16,0,0,1,1.43,11.22,52.49,52.49,0,0,1-1.8,10.43,89.83,89.83,0,0,1-7,17.26A168.43,168.43,0,0,1,237,314c-1.57,2-3.18,3.92-4.82,5.83a145.36,145.36,0,0,1-17.05,17A141.12,141.12,0,0,1,189,354.08c-2.37,1.22-4.76,2.38-7.19,3.47a181.12,181.12,0,0,1-49.92,13.85,259,259,0,0,1-53.68,1.43,317.48,317.48,0,0,1-33.56-4.2c-1.57-.28-3.13-.57-4.69-.88-1.21-.23-2.42-.47-3.62-.72a12.21,12.21,0,0,0-1.91-.19c-.34,0-.47.52-.09.6a322.32,322.32,0,0,0,32.76,5.09,282.63,282.63,0,0,0,51.46.87,199.54,199.54,0,0,0,56.82-12.58,151.59,151.59,0,0,0,43.22-25.69,149.21,149.21,0,0,0,11.63-11l2.31-2.47a143.52,143.52,0,0,0,12.35-15.31,119.47,119.47,0,0,0,15.9-33.17c.87-3,1.61-6,2.19-9,1.51-7.93,2.3-17-1.1-24.76a17.65,17.65,0,0,0-7.92-8.85c-4.4-2.3-9.27-3.16-13.64-5.67-21-12-24.11-39.71-28.16-61.08-1.17-6.24-2.56-12.53-4.26-18.76-4.22-15.5-10.26-30.67-19.83-43.61a85.15,85.15,0,0,0-19.21-18.92,77.25,77.25,0,0,0-7.44-4.66c-12.05-6.65-25.53-10.06-39.09-11.6a200.12,200.12,0,0,0-42.66,0,186.12,186.12,0,0,0-30.89,5.7q-5.43,1.52-10.73,3.38c-1.79.63-3.56,1.3-5.32,2a9.45,9.45,0,0,0-1.67,1h0a82.11,82.11,0,0,0-7.23,4.91c-.24.18.08.63.42.45h0C49.4,70.79,78.41,66,106.66,66.75A159.06,159.06,0,0,1,133,69.49a111.65,111.65,0,0,1,14.8,3.93A82.13,82.13,0,0,1,180.48,94Z"/>
        <path class="cls-2" d="M172.7,107c15.07,15.92,23.81,37,29.26,57.84q.66,2.52,1.24,5c2.09,9,3.6,18.21,5.63,27.3,2.29,10.29,5.31,20.83,11.09,29.74a48,48,0,0,0,5,6.48,40.56,40.56,0,0,0,5.82,5.25c3.84,2.79,8,4.31,12,6.34a14.88,14.88,0,0,1,7.51,8.21,25.42,25.42,0,0,1,1.25,10.66,50.08,50.08,0,0,1-1.77,9.89A82.9,82.9,0,0,1,243,290a158.35,158.35,0,0,1-17.63,26.08q-2.27,2.77-4.63,5.47a142.33,142.33,0,0,1-16.31,16,137.23,137.23,0,0,1-24.92,16.27c-2.25,1.15-4.54,2.24-6.84,3.27A170.5,170.5,0,0,1,125.17,370a242.55,242.55,0,0,1-51,1,297.72,297.72,0,0,1-31.8-4.31c-1.48-.28-3-.57-4.44-.88-1.15-.23-2.29-.47-3.43-.72a8.25,8.25,0,0,0-1.8-.15.3.3,0,0,0-.06.58,303.51,303.51,0,0,0,30.93,5.11,264.67,264.67,0,0,0,48.67,1.23,188.48,188.48,0,0,0,53.83-11.54A146.16,146.16,0,0,0,208,335.83a150.22,150.22,0,0,0,11.32-10.53q1.14-1.17,2.25-2.37a129.68,129.68,0,0,0,12.06-14.65,101.23,101.23,0,0,0,6.21-10.22,105.65,105.65,0,0,0,8.76-21.91q1.17-4.33,1.94-8.73c1.3-7.68,1.89-16.39-1.37-23.89a17.73,17.73,0,0,0-7.5-8.66c-4.07-2.24-8.6-3.12-12.66-5.54-19.48-11.52-22.63-37.43-26.63-57.52-1.16-5.86-2.51-11.76-4.15-17.61-4.07-14.55-9.81-28.81-18.84-41a82.32,82.32,0,0,0-18.5-18.15,75.64,75.64,0,0,0-7.14-4.49c-11.58-6.4-24.51-9.74-37.52-11.3a193.66,193.66,0,0,0-41-.24,182.51,182.51,0,0,0-29.72,5.23q-5.22,1.39-10.33,3.12c-1.72.58-3.43,1.21-5.13,1.84a6.51,6.51,0,0,0-1.53,1h0a68.23,68.23,0,0,0-6.08,4.47c-.2.16.1.58.43.41h0c24.29-11.86,52.18-16.26,79.29-15.19a151.62,151.62,0,0,1,25.27,2.95,107.16,107.16,0,0,1,14.14,4A79.62,79.62,0,0,1,172.7,107Z"/>
        <path class="cls-2" d="M164.92,119.91c14.12,15.2,22.51,35,27.85,54.75.42,1.58.83,3.17,1.21,4.76,2.06,8.54,3.59,17.19,5.57,25.78,2.25,9.74,5.13,19.7,10.49,28.19a48.76,48.76,0,0,0,4.63,6.2,39.39,39.39,0,0,0,5.36,5.07c3.52,2.72,7.31,4.29,11,6.32a14.42,14.42,0,0,1,6.83,7.92A24.74,24.74,0,0,1,238.9,269a48.26,48.26,0,0,1-1.73,9.35,77.45,77.45,0,0,1-6.55,15.41,148.72,148.72,0,0,1-17,24.44q-2.18,2.6-4.44,5.12a136.21,136.21,0,0,1-15.58,15,131.32,131.32,0,0,1-23.68,15.28q-3.21,1.62-6.5,3.06a159.4,159.4,0,0,1-45,12,226.16,226.16,0,0,1-48.24.51,278.24,278.24,0,0,1-30-4.42c-1.4-.28-2.8-.58-4.19-.88-1.08-.24-2.16-.47-3.23-.73A6.68,6.68,0,0,0,31,363a.28.28,0,0,0,0,.55,279.63,279.63,0,0,0,29.09,5.14,246.82,246.82,0,0,0,45.88,1.6,177.75,177.75,0,0,0,50.85-10.5,141.32,141.32,0,0,0,40.55-23.31,147,147,0,0,0,11-10c.74-.74,1.48-1.49,2.2-2.25a116.07,116.07,0,0,0,11.75-14,88.86,88.86,0,0,0,6-9.86,96.72,96.72,0,0,0,8.08-21.23c.69-2.78,1.26-5.59,1.68-8.43,1.09-7.42,1.5-15.77-1.64-23a17.71,17.71,0,0,0-7.06-8.47c-3.74-2.2-7.94-3.1-11.69-5.42-18-11-21.15-35.15-25.11-54-1.13-5.48-2.45-11-4-16.46-3.93-13.6-9.35-26.95-17.85-38.34a79.66,79.66,0,0,0-17.79-17.37,73.61,73.61,0,0,0-6.85-4.31c-11.1-6.16-23.47-9.43-35.94-11a186.54,186.54,0,0,0-39.32-.48,179.92,179.92,0,0,0-28.54,4.76q-5,1.27-9.94,2.86c-1.65.54-3.3,1.11-4.94,1.69a4.44,4.44,0,0,0-1.39,1h0a56.16,56.16,0,0,0-4.94,4c-.16.15.13.52.44.37h0C44.93,95.73,71.7,91.74,97.65,93.11a142.86,142.86,0,0,1,24.17,3.17,102.44,102.44,0,0,1,13.5,4A77.06,77.06,0,0,1,164.92,119.91Z"/>
        <path class="cls-2" d="M157.14,132.87c13.16,14.48,21.2,33.11,26.43,51.66.42,1.49.81,3,1.19,4.48,2,8,3.58,16.18,5.51,24.27,2.2,9.17,5,18.56,9.9,26.63a48.55,48.55,0,0,0,4.25,5.92,39.62,39.62,0,0,0,4.89,4.89c3.2,2.65,6.64,4.28,10,6.31a13.94,13.94,0,0,1,6.14,7.63,23.92,23.92,0,0,1,.88,9.54,45.25,45.25,0,0,1-1.7,8.81,70.73,70.73,0,0,1-6.32,14.48,138.89,138.89,0,0,1-16.36,22.8q-2.08,2.43-4.25,4.78a132.8,132.8,0,0,1-14.85,14,126.26,126.26,0,0,1-22.44,14.27q-3,1.51-6.15,2.87a149.58,149.58,0,0,1-42.55,11.11,209.83,209.83,0,0,1-45.51,0,253.58,253.58,0,0,1-28.27-4.52c-1.31-.28-2.63-.58-3.94-.88l-3-.73a4.53,4.53,0,0,0-1.58-.06.27.27,0,0,0,0,.53,261.38,261.38,0,0,0,27.26,5.16,229.77,229.77,0,0,0,43.08,2,166.36,166.36,0,0,0,47.87-9.47,136.13,136.13,0,0,0,39.21-22.11q5.58-4.52,10.7-9.55l2.14-2.14A106,106,0,0,0,211,312.17a78.26,78.26,0,0,0,5.71-9.51,87.67,87.67,0,0,0,7.4-20.54q.92-4,1.44-8.13c.88-7.16,1.09-15.16-1.91-22.13a17.84,17.84,0,0,0-6.64-8.28c-3.4-2.14-7.27-3.06-10.71-5.28-16.48-10.57-19.67-32.87-23.58-50.41-1.12-5.1-2.41-10.23-3.92-15.31-3.78-12.65-8.9-25.09-16.86-35.7a76.42,76.42,0,0,0-17.08-16.6,69.9,69.9,0,0,0-6.55-4.13C127.7,110.22,115.88,107,104,105.44a178.6,178.6,0,0,0-37.63-.73A176.79,176.79,0,0,0,39,109q-4.81,1.16-9.55,2.6c-1.59.49-3.17,1-4.75,1.54a3.25,3.25,0,0,0-1.25,1h0a49.1,49.1,0,0,0-3.79,3.6c-.13.14.15.47.45.33h0c22.63-9.83,48.28-13.4,73.09-11.74a135.74,135.74,0,0,1,23.07,3.39,98.6,98.6,0,0,1,12.85,4A74.58,74.58,0,0,1,157.14,132.87Z"/>
        <path class="cls-2" d="M149.35,145.83c12.23,13.75,19.91,31.18,25,48.58.41,1.39.8,2.79,1.18,4.2,2,7.52,3.56,15.15,5.45,22.75,2.15,8.61,4.77,17.42,9.3,25.07a48.44,48.44,0,0,0,3.87,5.64,40.56,40.56,0,0,0,4.42,4.72c2.89,2.58,6,4.25,8.94,6.28a13.61,13.61,0,0,1,5.45,7.34,23.35,23.35,0,0,1,.7,9,42.81,42.81,0,0,1-1.67,8.28,64.87,64.87,0,0,1-6.08,13.54,129.58,129.58,0,0,1-15.73,21.17q-2,2.25-4.06,4.43a127.7,127.7,0,0,1-14.11,13,121.22,121.22,0,0,1-21.22,13.28q-2.87,1.41-5.79,2.67a139,139,0,0,1-40.09,10.19,193.12,193.12,0,0,1-42.79-.43,234.32,234.32,0,0,1-26.51-4.63c-1.23-.28-2.46-.58-3.69-.89-.94-.23-1.89-.47-2.84-.73a3.59,3.59,0,0,0-1.46,0,.26.26,0,0,0,0,.5,237.18,237.18,0,0,0,25.43,5.19,211.23,211.23,0,0,0,40.29,2.33,155.56,155.56,0,0,0,44.88-8.42,130.84,130.84,0,0,0,37.88-20.93q5.4-4.28,10.38-9.06c.7-.67,1.4-1.34,2.09-2a96.48,96.48,0,0,0,11.14-12.71,67.78,67.78,0,0,0,5.46-9.17,79.32,79.32,0,0,0,6.73-19.84c.52-2.6.92-5.21,1.18-7.84.68-6.9.69-14.53-2.18-21.24a18.1,18.1,0,0,0-6.21-8.1c-3.07-2.08-6.59-3-9.73-5.15-15-10.12-18.19-30.59-22-46.84-1.1-4.72-2.36-9.47-3.82-14.17-3.63-11.7-8.44-23.22-15.86-33.06a73.47,73.47,0,0,0-22.63-19.79c-10.15-5.68-21.41-8.81-32.8-10.41a172.19,172.19,0,0,0-36-1,175,175,0,0,0-26.19,3.83q-4.62,1-9.15,2.35c-1.53.44-3.05.91-4.56,1.38a2.34,2.34,0,0,0-1.12.93h0a38,38,0,0,0-2.64,3.16c-.1.12.17.42.45.29h0c21.81-8.81,46.33-12,70-10a128.09,128.09,0,0,1,22,3.6,96.92,96.92,0,0,1,12.2,4.06A72,72,0,0,1,149.35,145.83Z"/>
        <path class="cls-2" d="M141.57,158.79c11.28,13,18.61,29.25,23.61,45.49.4,1.3.78,2.61,1.15,3.92,2,7,3.54,14.14,5.39,21.23,2.1,8,4.59,16.29,8.7,23.52a48.89,48.89,0,0,0,3.5,5.36,41.42,41.42,0,0,0,4,4.54,84.58,84.58,0,0,0,7.91,6.26,13.4,13.4,0,0,1,4.76,7.06,22.65,22.65,0,0,1,.52,8.42,40.74,40.74,0,0,1-1.64,7.74,58.93,58.93,0,0,1-5.85,12.61,119.47,119.47,0,0,1-15.09,19.53q-1.91,2.07-3.87,4.08a123,123,0,0,1-13.38,12,115.89,115.89,0,0,1-20,12.29c-1.79.87-3.61,1.69-5.44,2.47a128.52,128.52,0,0,1-37.64,9.27,177.22,177.22,0,0,1-40.07-.89,217.63,217.63,0,0,1-24.74-4.73c-1.15-.29-2.29-.59-3.43-.9-.89-.24-1.77-.47-2.65-.73a2.63,2.63,0,0,0-1.35,0,.25.25,0,0,0,0,.48A220.8,220.8,0,0,0,49.56,363a194.35,194.35,0,0,0,37.49,2.7,144.13,144.13,0,0,0,41.9-7.39,125.54,125.54,0,0,0,36.54-19.73c3.49-2.7,6.85-5.57,10.08-8.57l2-1.91a87,87,0,0,0,10.84-12.07,60.48,60.48,0,0,0,5.21-8.81,72.09,72.09,0,0,0,6-19.15c.43-2.5.74-5,.93-7.54.48-6.65.29-13.92-2.45-20.36a18.56,18.56,0,0,0-5.78-7.91c-2.75-2-5.93-3-8.76-5-13.46-9.64-16.73-28.3-20.52-43.28-1.1-4.34-2.31-8.7-3.71-13-3.49-10.75-8-21.36-14.88-30.43a71.22,71.22,0,0,0-15.65-15.06c-1.92-1.35-3.92-2.61-6-3.77-9.67-5.44-20.37-8.5-31.23-10.12a165,165,0,0,0-34.28-1.22,175.26,175.26,0,0,0-25,3.36c-2.95.62-5.87,1.31-8.76,2.09-1.47.39-2.92.82-4.37,1.23a1.63,1.63,0,0,0-1,.91h0c-.55.81-1,1.76-1.49,2.72-.06.1.19.36.46.25h0a150.9,150.9,0,0,1,66.89-8.28A120.24,120.24,0,0,1,105,136.46a91,91,0,0,1,11.55,4.09A69.62,69.62,0,0,1,141.57,158.79Z"/>
        <path class="cls-2" d="M133.79,171.75C144.13,184,151.1,199.06,156,214.15c.39,1.21.77,2.42,1.13,3.64,1.94,6.51,3.53,13.12,5.34,19.72,2.05,7.49,4.4,15.15,8.1,22a51.87,51.87,0,0,0,3.12,5.08,43.26,43.26,0,0,0,3.49,4.36c2.25,2.44,4.63,4.21,6.89,6.25a13.25,13.25,0,0,1,4.07,6.76,22,22,0,0,1,.33,7.86,36.77,36.77,0,0,1-1.6,7.21,52.89,52.89,0,0,1-5.62,11.68,110.4,110.4,0,0,1-14.45,17.9q-1.82,1.89-3.68,3.73a119.53,119.53,0,0,1-12.65,11,111.23,111.23,0,0,1-18.74,11.28q-2.52,1.2-5.1,2.28a117.92,117.92,0,0,1-35.18,8.35,160.33,160.33,0,0,1-37.34-1.36,196.59,196.59,0,0,1-23-4.83l-3.18-.9-2.45-.73a2,2,0,0,0-1.24.07.25.25,0,0,0,.05.46A199.62,199.62,0,0,0,46,361.13a177,177,0,0,0,34.7,3.07,132.66,132.66,0,0,0,38.92-6.35,120,120,0,0,0,35.21-18.55c3.37-2.55,6.62-5.25,9.76-8.07l2-1.8A78.17,78.17,0,0,0,177.14,318a52.4,52.4,0,0,0,5-8.46,65,65,0,0,0,5.38-18.47c.34-2.4.57-4.81.67-7.24.28-6.39-.11-13.29-2.71-19.48a19.4,19.4,0,0,0-5.36-7.72c-2.42-1.94-5.26-3-7.77-4.89-12-9.17-15.26-26-19-39.73-1.08-4-2.26-7.93-3.6-11.87-3.34-9.8-7.53-19.5-13.89-27.79a68.39,68.39,0,0,0-14.93-14.29q-2.76-1.94-5.68-3.59a87.53,87.53,0,0,0-29.66-9.82,157.25,157.25,0,0,0-32.61-1.47,173.28,173.28,0,0,0-23.83,2.89c-2.81.54-5.61,1.15-8.37,1.83-1.4.34-2.79.72-4.18,1.08a1.18,1.18,0,0,0-.84.89h0c-.16.68-.15,1.45-.35,2.28,0,.09.22.31.47.21h0a147.51,147.51,0,0,1,63.79-6.55,112.75,112.75,0,0,1,19.77,4A88.53,88.53,0,0,1,110.31,154,67.11,67.11,0,0,1,133.79,171.75Z"/>
        <path class="cls-2" d="M126,184.71c9.4,11.55,16,25.38,20.78,39.31.38,1.12.75,2.24,1.1,3.36,1.91,6,3.52,12.1,5.28,18.21,2,6.93,4.22,14,7.5,20.4.85,1.66,1.77,3.27,2.75,4.79a45.75,45.75,0,0,0,3,4.19c1.94,2.38,4,4.19,5.87,6.23a13.52,13.52,0,0,1,3.38,6.48,21.27,21.27,0,0,1,.15,7.3,35.1,35.1,0,0,1-1.56,6.67,48.09,48.09,0,0,1-5.39,10.75,101.47,101.47,0,0,1-13.81,16.26c-1.16,1.14-2.32,2.27-3.5,3.38a116.51,116.51,0,0,1-11.91,10,107,107,0,0,1-17.51,10.29q-2.35,1.1-4.75,2.07a107.54,107.54,0,0,1-32.72,7.44A144.48,144.48,0,0,1,50.06,360a175.92,175.92,0,0,1-21.21-4.94l-2.93-.91c-.75-.24-1.51-.47-2.26-.73a1.46,1.46,0,0,0-1.12.12.24.24,0,0,0,.07.43,181.75,181.75,0,0,0,19.92,5.27,160.41,160.41,0,0,0,31.91,3.42,120.77,120.77,0,0,0,35.94-5.31A114.15,114.15,0,0,0,144.24,340c3.26-2.39,6.41-4.93,9.46-7.58l1.92-1.68A70.13,70.13,0,0,0,165.85,320a45.47,45.47,0,0,0,4.7-8.11,58.67,58.67,0,0,0,4.71-17.77q.38-3.46.42-6.94c.07-6.13-.52-12.68-3-18.6a20.31,20.31,0,0,0-4.93-7.54c-2.09-1.86-4.59-2.93-6.79-4.76-10.46-8.69-13.78-23.75-17.48-36.17-1.06-3.57-2.2-7.16-3.49-10.72-3.19-8.85-7.08-17.64-12.89-25.15a65.87,65.87,0,0,0-14.22-13.52c-1.75-1.22-3.54-2.36-5.39-3.41a84.62,84.62,0,0,0-28.08-9.53A150.2,150.2,0,0,0,48.48,156a172.51,172.51,0,0,0-22.66,2.42c-2.67.46-5.33,1-8,1.57-1.34.3-2.67.62-4,.93-.57.14-.81.77-.7.87h0c.23.54.49,1.15.8,1.84a.41.41,0,0,0,.48.17h0A144.54,144.54,0,0,1,75.13,159a106.17,106.17,0,0,1,18.67,4.26,82.62,82.62,0,0,1,10.25,4.15A64.79,64.79,0,0,1,126,184.71Z"/>
        <path class="cls-2" d="M118.22,197.67c8.47,10.81,14.71,23.45,19.37,36.22.37,1,.73,2.05,1.09,3.08,1.87,5.5,3.5,11.09,5.22,16.69a134.89,134.89,0,0,0,6.9,18.86c.74,1.54,1.53,3.06,2.37,4.5s1.67,2.75,2.56,4c1.62,2.3,3.29,4.16,4.84,6.2a14.08,14.08,0,0,1,2.69,6.2,21.11,21.11,0,0,1,0,6.73,32.26,32.26,0,0,1-1.53,6.14,42.27,42.27,0,0,1-5.16,9.81,91.87,91.87,0,0,1-13.17,14.63c-1.1,1-2.2,2-3.31,3a113.12,113.12,0,0,1-11.18,9,101.91,101.91,0,0,1-16.28,9.3q-2.17,1-4.39,1.87a97.28,97.28,0,0,1-30.27,6.52A129.31,129.31,0,0,1,46,358.17a156.7,156.7,0,0,1-19.44-5.05l-2.69-.91-2.06-.73a1.09,1.09,0,0,0-1,.16.25.25,0,0,0,.09.41A163.32,163.32,0,0,0,39,357.34a143.32,143.32,0,0,0,29.11,3.79,109.07,109.07,0,0,0,33-4.27,108.85,108.85,0,0,0,32.53-16.17q4.71-3.37,9.14-7.09c.63-.52,1.25-1.05,1.87-1.58a62.1,62.1,0,0,0,9.92-10.12,39.86,39.86,0,0,0,4.46-7.76,52.58,52.58,0,0,0,4-17.08c.17-2.22.22-4.43.17-6.65A49.76,49.76,0,0,0,160,272.69a22.36,22.36,0,0,0-4.5-7.35c-1.78-1.77-3.92-2.89-5.82-4.63-9-8.21-12.3-21.47-15.95-32.61-1-3.19-2.15-6.39-3.38-9.57-3.05-7.9-6.63-15.77-11.9-22.52a63.32,63.32,0,0,0-13.51-12.74q-2.48-1.74-5.1-3.24a82.29,82.29,0,0,0-26.51-9.23,143,143,0,0,0-29.25-2,174,174,0,0,0-21.49,2q-3.81.58-7.58,1.32c-1.27.24-2.54.52-3.8.77-.55.12-.74.78-.56.84h0a9.88,9.88,0,0,1,2,1.41.53.53,0,0,0,.49.13h0c18.48-4.75,38.51-6.24,57.58-3.1a98.86,98.86,0,0,1,17.57,4.47,78,78,0,0,1,9.61,4.18A62.29,62.29,0,0,1,118.22,197.67Z"/>
        <path class="cls-2" d="M110.44,210.63a140.92,140.92,0,0,1,18,33.14c.36.92.71,1.86,1.06,2.79,1.85,5,3.49,10.07,5.16,15.18,1.9,5.81,3.85,11.74,6.3,17.3q1,2.16,2,4.22c.67,1.32,1.37,2.61,2.09,3.84,1.31,2.23,2.63,4.14,3.82,6.19a15.6,15.6,0,0,1,2,5.9,21.4,21.4,0,0,1-.21,6.18,29.9,29.9,0,0,1-1.5,5.6,36.75,36.75,0,0,1-4.93,8.88,82.75,82.75,0,0,1-12.53,13c-1,.91-2.08,1.8-3.12,2.69a113.31,113.31,0,0,1-10.44,8,98.75,98.75,0,0,1-15,8.29c-1.33.59-2.68,1.15-4,1.68a87.05,87.05,0,0,1-27.82,5.6A114.16,114.16,0,0,1,42,356.34a140.92,140.92,0,0,1-17.67-5.16l-2.44-.91c-.62-.24-1.24-.48-1.86-.74a.83.83,0,0,0-.9.21.25.25,0,0,0,.11.38,143.52,143.52,0,0,0,16.25,5.32,127.31,127.31,0,0,0,26.32,4.16,97.46,97.46,0,0,0,30-3.24,102.59,102.59,0,0,0,31.19-15c3-2.09,6-4.3,8.83-6.59l1.82-1.47a55.61,55.61,0,0,0,9.62-9.47,35,35,0,0,0,4.2-7.42A46.92,46.92,0,0,0,150.81,300c.07-2.11,0-4.23-.08-6.34a53.52,53.52,0,0,0-3.53-16.84,25.45,25.45,0,0,0-4.07-7.16c-1.47-1.68-3.25-2.86-4.84-4.5-7.46-7.73-10.81-19.2-14.42-29.06-1-2.8-2.11-5.62-3.27-8.42-2.9-6.95-6.18-13.9-10.91-19.88a60.87,60.87,0,0,0-12.8-12q-2.34-1.63-4.8-3.06a80,80,0,0,0-24.94-8.94,136.69,136.69,0,0,0-27.58-2.2,177.45,177.45,0,0,0-20.31,1.49c-2.41.31-4.8.66-7.19,1.06-1.21.2-2.41.42-3.61.63-.54.09-.68.77-.42.81H8a23,23,0,0,1,3.1,1,.73.73,0,0,0,.49.09h0c17.65-3.73,36.57-4.8,54.49-1.37A91.78,91.78,0,0,1,82.59,190a73.07,73.07,0,0,1,9,4.21A59.82,59.82,0,0,1,110.44,210.63Z"/>
        <path class="cls-2" d="M102.66,223.59a159,159,0,0,1,16.54,30c.35.83.7,1.67,1,2.51,1.82,4.49,3.48,9.06,5.1,13.67,1.86,5.24,3.67,10.6,5.71,15.74.53,1.33,1.07,2.65,1.62,3.94s1.08,2.47,1.63,3.66c1,2.16,1.95,4.12,2.79,6.17A18.23,18.23,0,0,1,138.4,305a21.69,21.69,0,0,1-.39,5.61,28.48,28.48,0,0,1-1.47,5.07,31.61,31.61,0,0,1-4.69,7.95A74.89,74.89,0,0,1,120,334.94L117,337.27a112.25,112.25,0,0,1-9.72,7,94.35,94.35,0,0,1-13.81,7.3c-1.22.52-2.45,1-3.7,1.48a76.83,76.83,0,0,1-25.35,4.68A99.37,99.37,0,0,1,38,354.5a120.47,120.47,0,0,1-15.91-5.26c-.73-.3-1.46-.6-2.18-.92l-1.68-.73a.61.61,0,0,0-.78.25.26.26,0,0,0,.14.36A126.6,126.6,0,0,0,32,353.54a110.21,110.21,0,0,0,23.53,4.52,84.76,84.76,0,0,0,27-2.2c10.67-2.65,20.76-7.7,29.86-13.78,2.9-1.94,5.74-4,8.52-6.11l1.75-1.35a48.44,48.44,0,0,0,9.32-8.83,29.62,29.62,0,0,0,3.95-7.06,41.86,41.86,0,0,0,2.68-15.7q0-3-.34-6a59,59,0,0,0-3.79-16,31.58,31.58,0,0,0-3.65-7c-1.17-1.58-2.58-2.82-3.86-4.37-6-7.24-9.32-16.92-12.89-25.5-1-2.42-2.06-4.85-3.16-7.27-2.76-6-5.74-12-9.93-17.24a58.4,58.4,0,0,0-12.08-11.2q-2.2-1.54-4.51-2.88A76.9,76.9,0,0,0,61,197a129.55,129.55,0,0,0-25.9-2.45,181.1,181.1,0,0,0-19.13,1q-3.4.34-6.8.8l-3.42.48c-.52.07-.61.77-.28.79h0c1.39.14,2.82.27,4.24.53a1.27,1.27,0,0,0,.51,0h0c16.82-2.71,34.61-3.37,51.38.35A84.81,84.81,0,0,1,77,203.43a69.07,69.07,0,0,1,8.31,4.24A57.27,57.27,0,0,1,102.66,223.59Z"/>
        <path class="cls-2" d="M94.88,236.55a202.66,202.66,0,0,1,15.13,27c.34.74.68,1.49,1,2.23q2.69,6,5,12.15c1.8,4.69,3.48,9.47,5.1,14.19.43,1.22.84,2.45,1.25,3.66s.78,2.33,1.16,3.48c.68,2.09,1.29,4.1,1.77,6.15a23,23,0,0,1,.05,10.39,25.62,25.62,0,0,1-1.44,4.53,26.51,26.51,0,0,1-4.46,7A65.46,65.46,0,0,1,108.24,337l-2.73,2c-2.9,2.11-5.89,4.12-9,6A92.87,92.87,0,0,1,84,351.3c-1.11.45-2.22.87-3.35,1.27a66.65,66.65,0,0,1-22.9,3.77A85.17,85.17,0,0,1,34,352.67a104,104,0,0,1-14.15-5.37l-1.93-.92-1.48-.73a.46.46,0,0,0-.67.29.28.28,0,0,0,.16.33,107.82,107.82,0,0,0,12.58,5.37,94.18,94.18,0,0,0,20.73,4.89,72.64,72.64,0,0,0,24-1.16c10.18-2.26,19.8-7,28.52-12.6,2.79-1.79,5.53-3.67,8.21-5.61l1.7-1.24a43.53,43.53,0,0,0,9-8.18,25.67,25.67,0,0,0,3.7-6.71,37.09,37.09,0,0,0,2-15c-.11-1.93-.31-3.84-.59-5.75a68.74,68.74,0,0,0-4.07-15.08,47.53,47.53,0,0,0-3.21-6.79c-.89-1.47-1.92-2.78-2.89-4.24-4.48-6.75-7.82-14.65-11.37-21.93q-1.47-3.07-3-6.13c-2.61-5-5.29-10.16-8.93-14.61a56,56,0,0,0-11.37-10.42c-1.37-1-2.78-1.86-4.21-2.7A74.91,74.91,0,0,0,54.88,210a122.67,122.67,0,0,0-24.23-2.69c-6-.12-12,.11-17.95.55-2.14.15-4.28.34-6.41.54l-3.23.33c-.5.05-.55.77-.14.77h0c1.78,0,3.58,0,5.39.09a2.81,2.81,0,0,0,.51,0h0c16-1.7,32.66-1.94,48.29,2.08a78.74,78.74,0,0,1,14.27,5.12A66,66,0,0,1,79,221.1,54.73,54.73,0,0,1,94.88,236.55Z"/>
        <path class="cls-2" d="M.36,221.45c22-1.29,45.36-1.82,65.41,8.77a54.81,54.81,0,0,1,21.32,19.29c5.21,8.43,10.25,17,14.72,25.82,4.29,8.5,8.18,17.35,10.36,26.65,1.75,7.45,2.5,15.81-.78,23C108,332.33,100.5,336.5,94,340.76A100.1,100.1,0,0,1,71.4,352.12c-18,6.06-37.43,2-53.84-6.76-1-.53-2-1.09-3-1.66a.38.38,0,0,0-.38.65C29,353,46.8,358.12,63.93,354.87c9.69-1.83,18.83-6.29,27.19-11.4,3.24-2,6.41-4.1,9.54-6.25a38.29,38.29,0,0,0,8.71-7.53c4.59-5.86,5.54-13.47,4.78-20.68-1-9.13-4.24-17.93-8-26.25a263.21,263.21,0,0,0-14.69-27.47,91,91,0,0,0-7.94-12,54.56,54.56,0,0,0-10.65-9.65c-18.49-12.89-41.68-14.32-63.48-13.44q-4.53.2-9.06.47c-.48,0-.48.77,0,.75Z"/>
      </g>
    </g>
  </g>
</svg>
