<?xml version="1.0" encoding="utf-8"?>
<!-- Generator: Adobe Illustrator 24.1.2, SVG Export Plug-In . SVG Version: 6.00 Build 0)  -->
<svg version="1.1" id="Layer_1" xmlns="http://www.w3.org/2000/svg" xmlns:xlink="http://www.w3.org/1999/xlink" x="0px" y="0px"
	 viewBox="0 0 825 830" style="enable-background:new 0 0 825 830;" xml:space="preserve">
<style type="text/css">
	.st0{opacity:0.33;}
	.st1{opacity:0.28;}
	.st2{fill:#2AC3EA;}
	.st3{opacity:0.325;}
	.st4{opacity:0.37;}
	.st5{opacity:0.415;}
	.st6{opacity:0.46;}
	.st7{opacity:0.505;}
	.st8{opacity:0.55;}
	.st9{opacity:0.595;}
	.st10{opacity:0.64;}
	.st11{opacity:0.685;}
	.st12{opacity:0.73;}
	.st13{opacity:0.775;}
	.st14{opacity:0.82;}
	.st15{opacity:0.865;}
	.st16{opacity:0.91;}
	.st17{opacity:0.955;}
</style>
<g class="st0">
	<g class="st1">
		<g>
			<path class="st2" d="M544.7,188.2c-33.1,19.2-60.1,48.5-76.6,83c-9.3,19.4-14.6,40.1-18.6,61.2c-4.1,21.7-7.1,43.6-13.2,64.9
				c-5.4,18.7-13.2,37.2-25.7,52.4c-12.9,15.7-30.3,25.6-49.1,33c-18.5,7.2-37.7,12.6-55.6,21.2c-16.4,7.9-31.7,18.2-45.4,30.3
				c-27.3,24.2-48.1,55.8-59.1,90.6c-1.3,4.3-2.5,8.6-3.6,12.9c-0.6,2.6,3.3,3.6,3.9,1.1c8.5-35.5,27.3-68.2,53.3-93.9
				c13-12.9,27.8-24,43.9-32.9c17.1-9.4,35.6-15.1,53.9-21.7c18.5-6.7,37-14.6,51.6-28.2c14-13,23.6-29.9,30.3-47.6
				c15.6-40.8,15.2-85.6,30.5-126.5c13.4-35.7,38.2-67.1,69.6-88.7c3.8-2.6,7.8-5.1,11.8-7.5C549,190.4,546.9,186.9,544.7,188.2
				L544.7,188.2z"/>
		</g>
	</g>
	<g class="st3">
		<g>
			<path class="st2" d="M545.9,217.9c-31.1,18.2-56.6,45.8-72.2,78.2c-8.8,18.3-13.9,37.8-17.7,57.6c-3.9,20.4-6.8,41.1-12.6,61
				c-5.1,17.6-12.5,35-24.2,49.2c-12.2,14.8-28.5,24.1-46.1,31.1c-17.4,6.9-35.4,11.9-52.3,20c-15.5,7.5-29.8,17.2-42.7,28.6
				c-25.7,22.8-45.4,52.6-55.7,85.4c-1.3,4-2.4,8.1-3.4,12.1c-0.6,2.6,3.3,3.6,3.9,1.1c8.1-33.4,25.8-64.2,50.2-88.4
				c12.3-12.2,26.2-22.6,41.3-31c16.1-8.8,33.5-14.3,50.7-20.6c17.4-6.3,34.8-13.8,48.6-26.6c13.2-12.3,22.2-28.2,28.6-44.9
				c14.7-38.4,14.5-80.6,29-119c12.7-33.6,36-63.1,65.5-83.5c3.6-2.5,7.3-4.8,11.1-7C550.2,220.1,548.1,216.6,545.9,217.9
				L545.9,217.9z"/>
		</g>
	</g>
	<g class="st4">
		<g>
			<path class="st2" d="M547.1,247.7c-29.1,17.1-52.9,42.9-67.6,73.2c-8.3,17.1-13.1,35.4-16.8,54c-3.7,19.1-6.5,38.5-11.9,57.3
				c-4.8,16.5-11.7,32.8-22.6,46.2c-11.3,13.9-26.6,22.7-43,29.3c-16.4,6.5-33.5,11.3-49.4,19.1c-14.5,7-28,16.2-40,26.9
				c-24.1,21.4-42.6,49.4-52.4,80.1c-1.2,3.8-2.2,7.6-3.2,11.4c-0.6,2.5,3.3,3.6,3.9,1.1c7.6-31.3,24.3-60.1,47.2-82.8
				c11.4-11.3,24.3-21.1,38.4-28.9c15.2-8.4,31.7-13.7,48-19.6c16.3-6,32.5-13,45.3-25c12.5-11.6,21-26.7,27-42.5
				c13.7-35.9,13.7-75.3,27.3-111.3c11.9-31.4,33.8-59.2,61.4-78.2c3.4-2.3,6.9-4.5,10.4-6.6C551.4,249.9,549.3,246.3,547.1,247.7
				L547.1,247.7z"/>
		</g>
	</g>
	<g class="st5">
		<g>
			<path class="st2" d="M548.3,277.4c-27.2,16-49.4,40.1-63.2,68.5c-7.7,15.8-12.3,32.8-15.7,50c-3.6,18-6.2,36.3-11.4,53.9
				c-4.6,15.5-11.1,30.8-21.5,43.3c-10.5,12.7-24.6,20.9-39.8,27c-15.3,6.2-31.2,10.7-46.1,18c-13.5,6.6-26.1,15.1-37.3,25.1
				c-22.6,20.1-39.8,46.1-49.1,74.9c-1.1,3.5-2.1,7.1-3,10.7c-0.6,2.5,3.3,3.6,3.9,1.1c7.2-29.2,22.8-56.1,44.2-77.3
				c10.6-10.6,22.6-19.7,35.7-27c14.2-7.9,29.6-12.8,44.7-18.4c15.2-5.6,30.3-12.3,42.4-23.5c11.6-10.9,19.7-25,25.3-39.8
				c12.9-33.6,13-70.6,26-104.3c11.2-29.1,31.5-54.7,57.2-72.5c3.2-2.2,6.4-4.3,9.7-6.2C552.6,279.6,550.5,276.1,548.3,277.4
				L548.3,277.4z"/>
		</g>
	</g>
	<g class="st6">
		<g>
			<path class="st2" d="M549.5,307.2c-25.3,15-46,37.5-58.9,63.9c-7.3,14.9-11.5,30.8-14.8,46.9c-3.3,16.6-5.8,33.4-10.7,49.7
				c-4.3,14.2-10.4,28.3-19.9,39.9c-9.9,12-23.1,19.6-37.4,25.4c-14,5.7-28.6,9.9-42.3,16.6c-12.6,6.2-24.4,14.2-34.9,23.6
				c-20.9,18.7-36.9,42.8-45.5,69.5c-1.1,3.3-2,6.6-2.8,9.9c-0.6,2.5,3.3,3.6,3.9,1.1c6.8-27,21.2-51.9,40.9-71.6
				c9.8-9.8,21-18.3,33.1-25.2c13-7.3,27.2-12,41.1-17.2c14.2-5.3,28.3-11.4,39.5-21.8c10.9-10,18.5-23.2,23.8-36.9
				c12.2-31.2,12.5-65.6,24.5-96.8c10.4-27.2,29.4-51.1,53.2-67.7c3-2.1,6-4,9.1-5.8C553.8,309.4,551.7,305.8,549.5,307.2
				L549.5,307.2z"/>
		</g>
	</g>
	<g class="st7">
		<g>
			<path class="st2" d="M550.6,336.9c-23.3,13.9-42.4,34.6-54.4,58.9c-6.8,13.8-10.8,28.5-13.9,43.6c-3.1,15.2-5.5,30.7-10,45.6
				c-4,13.2-9.6,26.3-18.5,37c-9,10.9-21,18-34,23.3c-13,5.4-26.6,9.4-39.3,15.6c-11.7,5.8-22.5,13.2-32.1,21.8
				c-19.4,17.3-34.3,39.7-42.4,64.4c-1,3-1.9,6.1-2.7,9.2c-0.6,2.5,3.3,3.6,3.9,1.1c6.4-25,19.8-48,38.1-66.2
				c9.1-9.1,19.5-17,30.7-23.3c12.1-6.8,25.1-11.1,38-16c13.1-5,26.1-10.8,36.4-20.4c10-9.3,16.9-21.4,21.8-34
				c11.3-28.7,11.7-60.3,22.8-89.1c9.7-25,27.2-47.1,49.2-62.5c2.7-1.9,5.5-3.7,8.4-5.4C555,339.1,552.9,335.6,550.6,336.9
				L550.6,336.9z"/>
		</g>
	</g>
	<g class="st8">
		<g>
			<path class="st2" d="M551.9,366.7c-21.4,12.8-38.9,31.9-50,54.2c-6.2,12.6-10,26-12.9,39.7c-3,14-5.2,28.3-9.4,42
				c-3.6,11.9-8.8,23.7-16.7,33.5c-8.2,10.1-19.2,16.7-31.1,21.7c-11.9,5-24.4,8.7-36,14.5c-10.7,5.3-20.6,12.1-29.4,20
				c-17.9,15.9-31.7,36.6-39.3,59.3c-0.9,2.8-1.7,5.6-2.5,8.4c-0.7,2.5,3.3,3.6,3.9,1.1c5.9-23,18.4-44.1,35.2-60.8
				c8.4-8.4,17.9-15.6,28.3-21.4c11-6.2,22.9-10.2,34.6-14.7c11.9-4.6,23.7-10,33.2-18.8c9.2-8.6,15.6-19.8,20.2-31.5
				c10.4-26.3,10.9-55.3,21.3-81.6c9-22.8,25-43,45-57c2.5-1.7,5-3.4,7.7-5C556.2,368.8,554.1,365.3,551.9,366.7L551.9,366.7z"/>
		</g>
	</g>
	<g class="st9">
		<g>
			<path class="st2" d="M553,396.4c-19.4,11.8-35.4,29.2-45.6,49.5c-5.7,11.5-9.2,23.7-11.9,36.2c-2.7,12.6-4.8,25.4-8.7,37.8
				c-3.4,10.9-8.1,21.8-15.5,30.7c-7.5,9.1-17.4,15.1-28.1,19.7c-10.9,4.6-22.2,8.1-32.8,13.4c-9.7,4.9-18.6,11.1-26.7,18.3
				c-16.3,14.6-28.9,33.4-35.9,54.1c-0.8,2.5-1.6,5.1-2.3,7.6c-0.7,2.5,3.3,3.6,3.9,1.1c5.5-20.8,16.8-39.9,32.1-55.2
				c7.6-7.6,16.2-14.2,25.6-19.5c10-5.7,20.8-9.4,31.5-13.6c10.9-4.3,21.7-9.2,30.3-17.4c8.4-7.9,14.2-18.1,18.4-28.7
				c9.5-23.9,10.2-50.2,19.7-74c8.2-20.7,22.8-39.1,41-52c2.3-1.6,4.6-3.1,7-4.6C557.3,398.6,555.3,395,553,396.4L553,396.4z"/>
		</g>
	</g>
	<g class="st10">
		<g>
			<path class="st2" d="M554.2,426.2c-17.5,10.7-31.9,26.3-41.1,44.6c-5.2,10.2-8.4,21.2-10.9,32.3c-2.6,11.5-4.6,23.2-8.2,34.5
				c-3.1,9.7-7.3,19.4-13.8,27.3c-6.8,8.4-15.9,13.9-25.7,18.1c-9.7,4.2-19.9,7.4-29.4,12.2c-8.7,4.5-16.8,10.2-24.1,16.7
				c-14.6,13.1-25.9,30-32.3,48.5c-0.8,2.3-1.5,4.7-2.2,7c-0.7,2.5,3.2,3.6,3.9,1.1c5.1-18.7,15.3-35.8,28.9-49.5
				c6.8-6.9,14.5-12.8,22.9-17.7c9-5.2,18.7-8.6,28.3-12.5c9.8-3.9,19.6-8.5,27.4-15.8c7.6-7.2,13-16.4,16.8-26.1
				c8.7-21.5,9.5-45.1,18.2-66.6c7.5-18.6,20.6-35.1,36.9-46.7c2-1.4,4.1-2.8,6.2-4.1C558.5,428.3,556.5,424.8,554.2,426.2
				L554.2,426.2z"/>
		</g>
	</g>
	<g class="st11">
		<g>
			<path class="st2" d="M555.4,455.9c-15.5,9.6-28.4,23.6-36.7,39.8c-4.6,9.1-7.6,18.8-9.9,28.7c-2.4,10.2-4.3,20.5-7.5,30.5
				c-2.8,8.7-6.7,17.4-12.5,24.5c-6.1,7.4-14.1,12.3-22.8,16.2c-8.6,3.8-17.6,6.7-25.9,11.1c-7.7,4-14.9,9.2-21.4,15
				c-13,11.8-23.1,26.7-28.9,43.3c-0.7,2.1-1.4,4.1-2,6.3c-0.7,2.5,3.2,3.6,3.9,1.1c4.6-16.6,13.8-31.8,25.9-44
				c6.1-6.1,12.9-11.4,20.3-15.8c7.9-4.6,16.5-7.8,25-11.2c8.7-3.6,17.3-7.6,24.2-14.1c6.8-6.4,11.5-14.5,15.1-23
				c7.9-19.1,8.9-40.3,16.8-59.4c6.8-16.5,18.4-31.2,32.9-41.6c1.8-1.3,3.6-2.5,5.5-3.7C559.7,458,557.7,454.5,555.4,455.9
				L555.4,455.9z"/>
		</g>
	</g>
	<g class="st12">
		<g>
			<path class="st2" d="M556.6,485.6c-13.6,8.6-24.9,20.8-32.3,35.1c-4.1,7.9-6.8,16.3-8.9,24.9c-2.2,8.9-3.9,17.9-6.8,26.6
				c-2.5,7.6-5.9,15.1-10.9,21.3c-5.3,6.6-12.3,11-19.9,14.5c-7.5,3.4-15.4,6.1-22.7,10c-6.8,3.6-13.1,8.1-18.8,13.3
				c-11.5,10.4-20.4,23.6-25.7,38.2c-0.7,1.8-1.2,3.6-1.8,5.5c-0.7,2.5,3.2,3.6,3.9,1.1c4.3-14.6,12.4-27.9,23.1-38.7
				c5.4-5.4,11.3-10,17.8-13.9c7-4.1,14.5-6.9,22-10.1c7.6-3.2,15-6.9,21-12.7c5.9-5.7,10-12.8,13.2-20.3
				c6.9-16.5,8.1-34.7,14.9-51.3c6-14.5,16.2-27.3,28.8-36.6c1.6-1.2,3.3-2.3,5-3.4C560.9,487.8,558.9,484.2,556.6,485.6
				L556.6,485.6z"/>
		</g>
	</g>
	<g class="st13">
		<g>
			<path class="st2" d="M557.8,515.4c-11.7,7.6-21.5,18.2-28,30.5c-7.3,13.8-9,29.4-14,44c-2.2,6.6-5.3,13.1-9.7,18.5
				c-4.5,5.5-10.3,9.2-16.7,12.2c-6.4,3.1-13.2,5.5-19.5,8.9c-5.9,3.2-11.3,7.2-16.3,11.7c-11,10.1-19.4,23.1-23.8,37.5
				c-0.8,2.5,3.2,3.6,3.9,1.1c3.9-12.6,11-24.1,20.3-33.4c4.6-4.6,9.7-8.6,15.3-12c5.9-3.6,12.4-6,18.7-8.8
				c6.4-2.8,12.7-6.2,17.8-11.1c5-4.9,8.6-10.9,11.3-17.2c6-14.1,7.4-29.7,13.4-43.8c6-14,16.3-26.2,29.1-34.5
				C562.1,517.5,560,514,557.8,515.4L557.8,515.4z"/>
		</g>
	</g>
	<g class="st14">
		<g>
			<path class="st2" d="M559,545.1c-9.7,6.5-17.8,15.3-23.4,25.5c-6.2,11.5-8.1,24.4-12.5,36.6c-1.9,5.4-4.5,10.8-8.2,15.3
				c-3.9,4.7-8.8,8-14.2,10.7c-5.2,2.6-10.7,4.7-15.8,7.6c-4.9,2.8-9.5,6.2-13.6,10c-9.2,8.6-16.3,19.5-20.2,31.4
				c-0.8,2.5,3.1,3.6,3.9,1.1c3.4-10.4,9.4-19.8,17-27.6c3.8-3.9,8.1-7.3,12.7-10.2c4.9-3.1,10.3-5.3,15.5-7.7
				c5.4-2.5,10.6-5.4,14.8-9.6c4.1-4.1,7.3-9.1,9.6-14.4c5.2-11.7,6.7-24.7,11.9-36.4c5.2-11.7,13.7-21.9,24.4-29
				C563.3,547.2,561.2,543.7,559,545.1L559,545.1z"/>
		</g>
	</g>
	<g class="st15">
		<g>
			<path class="st2" d="M560.2,574.9c-7.8,5.5-14.4,12.6-19.1,21c-5.1,9.1-7,19.4-10.7,29c-1.7,4.3-3.8,8.6-6.8,12.3
				c-3.1,3.8-7,6.5-11.2,8.8c-4.2,2.2-8.5,4.1-12.6,6.5c-3.9,2.3-7.5,5.1-10.8,8.3c-7.5,7.1-13.3,15.8-16.8,25.5
				c-0.9,2.5,3,3.5,3.9,1.1c3-8.3,7.9-15.9,14.2-22.2c3.1-3.1,6.4-5.9,10.1-8.2c3.9-2.5,8.1-4.4,12.2-6.5c4.3-2.1,8.4-4.6,11.8-8
				c3.3-3.3,5.9-7.4,7.8-11.6c4.3-9.2,6-19.4,10.2-28.7c4.3-9.4,11.2-17.7,19.7-23.7C564.4,576.9,562.4,573.4,560.2,574.9
				L560.2,574.9z"/>
		</g>
	</g>
	<g class="st16">
		<g>
			<path class="st2" d="M561.4,604.6c-5.8,4.3-10.7,9.7-14.5,15.9c-4.1,6.8-6,14.5-9.2,21.7c-1.4,3.3-3.1,6.5-5.4,9.3
				c-2.3,2.8-5,4.9-8.1,6.7c-3.2,1.9-6.5,3.5-9.6,5.5c-2.9,1.9-5.7,4.1-8.2,6.6c-5.7,5.5-10.2,12.2-13.2,19.5
				c-0.4,1,0.5,2.2,1.4,2.5c1.2,0.3,2.1-0.4,2.5-1.4c2.6-6.2,6.5-12,11.2-16.8c2.3-2.4,4.8-4.5,7.6-6.4c2.9-2,6-3.6,9.1-5.3
				c3.2-1.9,6.4-4,8.9-6.7c2.4-2.6,4.3-5.5,5.9-8.7c3.4-6.8,5.2-14.3,8.6-21.1c3.5-7,8.7-13.2,15-17.9c0.9-0.7,1.3-1.7,0.7-2.8
				C563.7,604.5,562.3,604,561.4,604.6L561.4,604.6z"/>
		</g>
	</g>
	<g class="st17">
		<g>
			<path class="st2" d="M562.2,634.7c-3.7,3.2-7,6.9-9.8,11c-2.9,4.3-4.8,9.2-7.2,13.7c-2.4,4.5-5.2,8.4-9.3,11.4
				c-4,2.9-8,5.6-11.5,9.1c-3.9,3.9-7.2,8.4-9.8,13.3c-1.2,2.3,2.3,4.4,3.5,2.1c2.2-4.2,4.9-8.1,8.2-11.5c3.4-3.6,7.3-6.3,11.2-9.1
				c4.1-3,7.4-6.5,9.9-10.8c2.6-4.4,4.4-9.2,7-13.6c2.8-4.8,6.4-9,10.6-12.5C567.1,635.9,564.2,633,562.2,634.7L562.2,634.7z"/>
		</g>
	</g>
	<g>
		<g>
			<path class="st2" d="M563.4,664.4c-9.1,10.7-18.2,21.4-27.4,32.1c-1.7,2,1.2,4.9,2.9,2.9c9.1-10.7,18.2-21.4,27.4-32.1
				C568,665.3,565.1,662.4,563.4,664.4L563.4,664.4z"/>
		</g>
	</g>
</g>
</svg>
