<svg xmlns="http://www.w3.org/2000/svg" viewBox="0 0 164.58 164.28">
  <defs>
    <style>
      .cls-1 {
        fill: #fff;
      }
    </style>
  </defs>
  <g id="Layer_2" data-name="Layer 2">
    <g id="Layer_10" data-name="Layer 10">
      <g>
        <path class="cls-1" d="M13.18,65h0C8.84,66.31,4.46,67.46,0,68.43A47.62,47.62,0,0,0,28.7,82.14a49.09,49.09,0,0,0,5.46.25A47.63,47.63,0,0,0,81.28,34.25c0-1.49-.11-2.94-.23-4.38A202.29,202.29,0,0,1,13.18,65Z"/>
        <path class="cls-1" d="M130.56,81.4c1.49,0,3-.11,4.47-.24A201.6,201.6,0,0,1,99.81,13c-1.27-4.3-2.38-8.64-3.3-13A47.41,47.41,0,0,0,82.43,34.24,47.66,47.66,0,0,0,130.56,81.4Z"/>
        <path class="cls-1" d="M34.17,83.23c-1.49,0-3,.11-4.42.24A202.32,202.32,0,0,1,65.31,151.6c1.23,4.19,2.34,8.41,3.3,12.68A47.48,47.48,0,0,0,82,136.42a44.87,44.87,0,0,0,.32-6A47.63,47.63,0,0,0,34.17,83.23Z"/>
        <path class="cls-1" d="M136,82.49a49.61,49.61,0,0,0-5.47-.25,47.66,47.66,0,0,0-47.15,48.14A44.82,44.82,0,0,0,83.7,135a202,202,0,0,1,67.67-35.52c4.34-1.3,8.76-2.5,13.21-3.46A47.35,47.35,0,0,0,136,82.49Z"/>
      </g>
    </g>
  </g>
</svg>
