<svg xmlns="http://www.w3.org/2000/svg" viewBox="0 0 92.61 74.93">
  <defs>
    <style>
      .cls-1 {
        opacity: 0.31;
      }

      .cls-2 {
        fill: #101b37;
      }

      .cls-3 {
        fill: #fcfcfc;
      }

      .cls-4 {
        fill: #ec008c;
      }
    </style>
  </defs>
  <g id="Layer_2" data-name="Layer 2">
    <g id="Layer_10" data-name="Layer 10">
      <g>
        <g class="cls-1">
          <rect class="cls-2" x="13.93" width="78.67" height="51.83" rx="10.64"/>
        </g>
        <path class="cls-3" d="M66.89,63.75h-15V61h15a7.66,7.66,0,0,0,7.65-7.65V21.23a7.66,7.66,0,0,0-7.65-7.65H10.42a7.65,7.65,0,0,0-7.64,7.65V53.32A7.65,7.65,0,0,0,10.42,61h15v2.78h-15A10.44,10.44,0,0,1,0,53.32V21.23A10.44,10.44,0,0,1,10.42,10.8H66.89A10.44,10.44,0,0,1,77.32,21.23V53.32A10.44,10.44,0,0,1,66.89,63.75Z"/>
        <path class="cls-3" d="M51.88,74.93H25.43a1.38,1.38,0,0,1-1.2-.7,1.36,1.36,0,0,1,0-1.39L37.46,50.3a1.4,1.4,0,0,1,2.4,0L53.08,72.84a1.39,1.39,0,0,1-1.2,2.09Zm-24-2.78h21.6l-10.8-18.4Z"/>
        <circle class="cls-4" cx="11.73" cy="22.78" r="3.14"/>
        <circle class="cls-4" cx="24.47" cy="22.55" r="3.37"/>
      </g>
    </g>
  </g>
</svg>
