<svg xmlns="http://www.w3.org/2000/svg" viewBox="0 0 989.97 168.47">
  <defs>
    <style>
      .cls-1 {
        opacity: 0.31;
      }

      .cls-2 {
        fill: #ff0387;
      }
    </style>
  </defs>
  <g id="Layer_2" data-name="Layer 2">
    <g id="Layer_8" data-name="Layer 8">
      <g class="cls-1">
        <path class="cls-2" d="M990,108.7C764.13,28.07,646.82,72.35,646.82,72.35,611,85.87,577.4,110,481.29,145.87c-27.77,10.36-57.11,17.73-86.9,17.62s-58.06-8.91-84.14-23c-25.73-13.93-49-31.94-71.93-50C222.5,78,207.15,64.85,190.68,53.25,155,28.11,110.58,21.58,68.07,30c-6,1.19-11.91,2.64-17.78,4.31-4.16,1.19-9.3,2.09-13,4.33C33,41.22,29.07,45.45,25.56,49,12.72,61.9,1.43,78.46.11,97.13c-1.41,20,10.47,37.11,26.07,48.42C40.94,156.26,59,161.06,77,162.05c61.9,3.43,110.34-28.88,125.77-39.67a196.3,196.3,0,0,0,32.41-28c9.17-10,26.56-29.44,35.64-58.61A193.49,193.49,0,0,0,278,0s-1.26,5.91-1.25,5.91S278,0,278,0s-2.39,11.73-4.51,19.84a164,164,0,0,1-23.59,51A160.31,160.31,0,0,1,224.16,99.5c-33.13,29.65-76.64,51.15-121,56.58-19,2.33-38.91,1.6-57-5.31C30,144.54,13.9,132,7.7,115.3.09,94.76,10.16,73.9,23.61,58.41a120.21,120.21,0,0,1,14.31-14c5.52-4.55,15.24-5.9,22.35-7.63,42.48-10.35,88.25-6.14,124.94,18.71C201.17,66.34,215.85,79.05,231,91c21.39,16.92,43,33.88,66.42,47.88,23.1,13.8,48.24,24.52,75.07,28.12,27.69,3.71,55.86.1,82.65-7.31,56.3-15.57,105.69-47.77,159.22-70.14C667.2,67.44,723.91,58.8,781,61.2c57.47,2.42,114.17,15.11,168.66,33.1,1.86.61,40.26,14.39,40.27,14.4Z"/>
      </g>
    </g>
  </g>
</svg>
